<svg xmlns="http://www.w3.org/2000/svg" xmlns:xlink="http://www.w3.org/1999/xlink" width="1280" zoomAndPan="magnify" viewBox="0 0 960 959.999988" height="1280" preserveAspectRatio="xMidYMid meet" version="1.0"><defs><linearGradient x1="0" gradientTransform="matrix(0.75, 0, 0, 0.75, 0.00000575, 0.00002)" y1="0" x2="1279.999947" gradientUnits="userSpaceOnUse" y2="0" id="60cd5fb375"><stop stop-opacity="1" stop-color="rgb(0%, 0%, 0%)" offset="0"/><stop stop-opacity="1" stop-color="rgb(0.305176%, 0.221252%, 0.0335693%)" offset="0.00390625"/><stop stop-opacity="1" stop-color="rgb(0.611877%, 0.444031%, 0.0671387%)" offset="0.0078125"/><stop stop-opacity="1" stop-color="rgb(0.917053%, 0.665283%, 0.100708%)" offset="0.0117188"/><stop stop-opacity="1" stop-color="rgb(1.223755%, 0.888062%, 0.134277%)" offset="0.015625"/><stop stop-opacity="1" stop-color="rgb(1.530457%, 1.109314%, 0.167847%)" offset="0.0195312"/><stop stop-opacity="1" stop-color="rgb(1.837158%, 1.332092%, 0.201416%)" offset="0.0234375"/><stop stop-opacity="1" stop-color="rgb(2.142334%, 1.554871%, 0.234985%)" offset="0.0273438"/><stop stop-opacity="1" stop-color="rgb(2.449036%, 1.777649%, 0.268555%)" offset="0.03125"/><stop stop-opacity="1" stop-color="rgb(2.755737%, 1.998901%, 0.302124%)" offset="0.0351562"/><stop stop-opacity="1" stop-color="rgb(3.062439%, 2.22168%, 0.335693%)" offset="0.0390625"/><stop stop-opacity="1" stop-color="rgb(3.367615%, 2.442932%, 0.369263%)" offset="0.0429688"/><stop stop-opacity="1" stop-color="rgb(3.674316%, 2.66571%, 0.402832%)" offset="0.046875"/><stop stop-opacity="1" stop-color="rgb(3.979492%, 2.888489%, 0.436401%)" offset="0.0507812"/><stop stop-opacity="1" stop-color="rgb(4.286194%, 3.111267%, 0.469971%)" offset="0.0546875"/><stop stop-opacity="1" stop-color="rgb(4.592896%, 3.33252%, 0.50354%)" offset="0.0585938"/><stop stop-opacity="1" stop-color="rgb(4.899597%, 3.555298%, 0.537109%)" offset="0.0625"/><stop stop-opacity="1" stop-color="rgb(5.204773%, 3.77655%, 0.570679%)" offset="0.0664062"/><stop stop-opacity="1" stop-color="rgb(5.511475%, 3.999329%, 0.604248%)" offset="0.0703125"/><stop stop-opacity="1" stop-color="rgb(5.818176%, 4.222107%, 0.637817%)" offset="0.0742188"/><stop stop-opacity="1" stop-color="rgb(6.124878%, 4.444885%, 0.671387%)" offset="0.078125"/><stop stop-opacity="1" stop-color="rgb(6.430054%, 4.666138%, 0.704956%)" offset="0.0820312"/><stop stop-opacity="1" stop-color="rgb(6.736755%, 4.888916%, 0.738525%)" offset="0.0859375"/><stop stop-opacity="1" stop-color="rgb(7.041931%, 5.110168%, 0.772095%)" offset="0.0898438"/><stop stop-opacity="1" stop-color="rgb(7.348633%, 5.332947%, 0.805664%)" offset="0.09375"/><stop stop-opacity="1" stop-color="rgb(7.655334%, 5.555725%, 0.839233%)" offset="0.0976562"/><stop stop-opacity="1" stop-color="rgb(7.962036%, 5.778503%, 0.872803%)" offset="0.101562"/><stop stop-opacity="1" stop-color="rgb(8.267212%, 5.999756%, 0.906372%)" offset="0.105469"/><stop stop-opacity="1" stop-color="rgb(8.573914%, 6.222534%, 0.939941%)" offset="0.109375"/><stop stop-opacity="1" stop-color="rgb(8.880615%, 6.443787%, 0.973511%)" offset="0.113281"/><stop stop-opacity="1" stop-color="rgb(9.187317%, 6.666565%, 1.00708%)" offset="0.117188"/><stop stop-opacity="1" stop-color="rgb(9.492493%, 6.889343%, 1.040649%)" offset="0.121094"/><stop stop-opacity="1" stop-color="rgb(9.799194%, 7.112122%, 1.074219%)" offset="0.125"/><stop stop-opacity="1" stop-color="rgb(10.10437%, 7.333374%, 1.107788%)" offset="0.128906"/><stop stop-opacity="1" stop-color="rgb(10.411072%, 7.556152%, 1.141357%)" offset="0.132812"/><stop stop-opacity="1" stop-color="rgb(10.717773%, 7.777405%, 1.174927%)" offset="0.136719"/><stop stop-opacity="1" stop-color="rgb(11.024475%, 8.000183%, 1.208496%)" offset="0.140625"/><stop stop-opacity="1" stop-color="rgb(11.329651%, 8.222961%, 1.242065%)" offset="0.144531"/><stop stop-opacity="1" stop-color="rgb(11.636353%, 8.44574%, 1.275635%)" offset="0.148438"/><stop stop-opacity="1" stop-color="rgb(11.943054%, 8.666992%, 1.309204%)" offset="0.152344"/><stop stop-opacity="1" stop-color="rgb(12.249756%, 8.889771%, 1.342773%)" offset="0.15625"/><stop stop-opacity="1" stop-color="rgb(12.554932%, 9.111023%, 1.376343%)" offset="0.160156"/><stop stop-opacity="1" stop-color="rgb(12.861633%, 9.333801%, 1.409912%)" offset="0.164062"/><stop stop-opacity="1" stop-color="rgb(13.166809%, 9.55658%, 1.443481%)" offset="0.167969"/><stop stop-opacity="1" stop-color="rgb(13.473511%, 9.779358%, 1.477051%)" offset="0.171875"/><stop stop-opacity="1" stop-color="rgb(13.780212%, 10.00061%, 1.51062%)" offset="0.175781"/><stop stop-opacity="1" stop-color="rgb(14.086914%, 10.223389%, 1.544189%)" offset="0.179688"/><stop stop-opacity="1" stop-color="rgb(14.39209%, 10.444641%, 1.577759%)" offset="0.183594"/><stop stop-opacity="1" stop-color="rgb(14.698792%, 10.667419%, 1.611328%)" offset="0.1875"/><stop stop-opacity="1" stop-color="rgb(15.005493%, 10.890198%, 1.644897%)" offset="0.191406"/><stop stop-opacity="1" stop-color="rgb(15.312195%, 11.112976%, 1.678467%)" offset="0.195312"/><stop stop-opacity="1" stop-color="rgb(15.617371%, 11.334229%, 1.712036%)" offset="0.199219"/><stop stop-opacity="1" stop-color="rgb(15.924072%, 11.557007%, 1.745605%)" offset="0.203125"/><stop stop-opacity="1" stop-color="rgb(16.230774%, 11.778259%, 1.779175%)" offset="0.207031"/><stop stop-opacity="1" stop-color="rgb(16.537476%, 12.001038%, 1.812744%)" offset="0.210938"/><stop stop-opacity="1" stop-color="rgb(16.842651%, 12.223816%, 1.846313%)" offset="0.214844"/><stop stop-opacity="1" stop-color="rgb(17.149353%, 12.446594%, 1.879883%)" offset="0.21875"/><stop stop-opacity="1" stop-color="rgb(17.454529%, 12.667847%, 1.913452%)" offset="0.222656"/><stop stop-opacity="1" stop-color="rgb(17.76123%, 12.890625%, 1.947021%)" offset="0.226562"/><stop stop-opacity="1" stop-color="rgb(18.067932%, 13.111877%, 1.980591%)" offset="0.230469"/><stop stop-opacity="1" stop-color="rgb(18.374634%, 13.334656%, 2.01416%)" offset="0.234375"/><stop stop-opacity="1" stop-color="rgb(18.67981%, 13.557434%, 2.047729%)" offset="0.238281"/><stop stop-opacity="1" stop-color="rgb(18.986511%, 13.780212%, 2.081299%)" offset="0.242188"/><stop stop-opacity="1" stop-color="rgb(19.293213%, 14.001465%, 2.114868%)" offset="0.246094"/><stop stop-opacity="1" stop-color="rgb(19.599915%, 14.224243%, 2.149963%)" offset="0.25"/><stop stop-opacity="1" stop-color="rgb(19.90509%, 14.445496%, 2.183533%)" offset="0.253906"/><stop stop-opacity="1" stop-color="rgb(20.211792%, 14.668274%, 2.217102%)" offset="0.257812"/><stop stop-opacity="1" stop-color="rgb(20.516968%, 14.891052%, 2.250671%)" offset="0.261719"/><stop stop-opacity="1" stop-color="rgb(20.823669%, 15.113831%, 2.284241%)" offset="0.265625"/><stop stop-opacity="1" stop-color="rgb(21.130371%, 15.335083%, 2.31781%)" offset="0.269531"/><stop stop-opacity="1" stop-color="rgb(21.437073%, 15.557861%, 2.351379%)" offset="0.273438"/><stop stop-opacity="1" stop-color="rgb(21.742249%, 15.779114%, 2.384949%)" offset="0.277344"/><stop stop-opacity="1" stop-color="rgb(22.04895%, 16.001892%, 2.418518%)" offset="0.28125"/><stop stop-opacity="1" stop-color="rgb(22.355652%, 16.22467%, 2.452087%)" offset="0.285156"/><stop stop-opacity="1" stop-color="rgb(22.662354%, 16.447449%, 2.485657%)" offset="0.289062"/><stop stop-opacity="1" stop-color="rgb(22.967529%, 16.668701%, 2.519226%)" offset="0.292969"/><stop stop-opacity="1" stop-color="rgb(23.274231%, 16.891479%, 2.552795%)" offset="0.296875"/><stop stop-opacity="1" stop-color="rgb(23.579407%, 17.112732%, 2.586365%)" offset="0.300781"/><stop stop-opacity="1" stop-color="rgb(23.886108%, 17.33551%, 2.619934%)" offset="0.304688"/><stop stop-opacity="1" stop-color="rgb(24.19281%, 17.558289%, 2.653503%)" offset="0.308594"/><stop stop-opacity="1" stop-color="rgb(24.499512%, 17.781067%, 2.687073%)" offset="0.3125"/><stop stop-opacity="1" stop-color="rgb(24.804688%, 18.002319%, 2.720642%)" offset="0.316406"/><stop stop-opacity="1" stop-color="rgb(25.111389%, 18.225098%, 2.754211%)" offset="0.320312"/><stop stop-opacity="1" stop-color="rgb(25.418091%, 18.44635%, 2.787781%)" offset="0.324219"/><stop stop-opacity="1" stop-color="rgb(25.724792%, 18.669128%, 2.82135%)" offset="0.328125"/><stop stop-opacity="1" stop-color="rgb(26.029968%, 18.891907%, 2.854919%)" offset="0.332031"/><stop stop-opacity="1" stop-color="rgb(26.33667%, 19.114685%, 2.888489%)" offset="0.335938"/><stop stop-opacity="1" stop-color="rgb(26.641846%, 19.335938%, 2.922058%)" offset="0.339844"/><stop stop-opacity="1" stop-color="rgb(26.948547%, 19.558716%, 2.955627%)" offset="0.34375"/><stop stop-opacity="1" stop-color="rgb(27.255249%, 19.779968%, 2.989197%)" offset="0.347656"/><stop stop-opacity="1" stop-color="rgb(27.561951%, 20.002747%, 3.022766%)" offset="0.351562"/><stop stop-opacity="1" stop-color="rgb(27.867126%, 20.225525%, 3.056335%)" offset="0.355469"/><stop stop-opacity="1" stop-color="rgb(28.173828%, 20.448303%, 3.089905%)" offset="0.359375"/><stop stop-opacity="1" stop-color="rgb(28.48053%, 20.669556%, 3.123474%)" offset="0.363281"/><stop stop-opacity="1" stop-color="rgb(28.787231%, 20.892334%, 3.157043%)" offset="0.367188"/><stop stop-opacity="1" stop-color="rgb(29.092407%, 21.113586%, 3.190613%)" offset="0.371094"/><stop stop-opacity="1" stop-color="rgb(29.399109%, 21.336365%, 3.224182%)" offset="0.375"/><stop stop-opacity="1" stop-color="rgb(29.704285%, 21.559143%, 3.257751%)" offset="0.378906"/><stop stop-opacity="1" stop-color="rgb(30.010986%, 21.781921%, 3.291321%)" offset="0.382812"/><stop stop-opacity="1" stop-color="rgb(30.317688%, 22.003174%, 3.32489%)" offset="0.386719"/><stop stop-opacity="1" stop-color="rgb(30.62439%, 22.225952%, 3.358459%)" offset="0.390625"/><stop stop-opacity="1" stop-color="rgb(30.929565%, 22.447205%, 3.392029%)" offset="0.394531"/><stop stop-opacity="1" stop-color="rgb(31.236267%, 22.669983%, 3.425598%)" offset="0.398438"/><stop stop-opacity="1" stop-color="rgb(31.542969%, 22.892761%, 3.459167%)" offset="0.402344"/><stop stop-opacity="1" stop-color="rgb(31.84967%, 23.11554%, 3.492737%)" offset="0.40625"/><stop stop-opacity="1" stop-color="rgb(32.154846%, 23.336792%, 3.526306%)" offset="0.410156"/><stop stop-opacity="1" stop-color="rgb(32.461548%, 23.55957%, 3.559875%)" offset="0.414062"/><stop stop-opacity="1" stop-color="rgb(32.76825%, 23.780823%, 3.593445%)" offset="0.417969"/><stop stop-opacity="1" stop-color="rgb(33.074951%, 24.003601%, 3.627014%)" offset="0.421875"/><stop stop-opacity="1" stop-color="rgb(33.380127%, 24.226379%, 3.660583%)" offset="0.425781"/><stop stop-opacity="1" stop-color="rgb(33.686829%, 24.449158%, 3.694153%)" offset="0.429688"/><stop stop-opacity="1" stop-color="rgb(33.992004%, 24.67041%, 3.727722%)" offset="0.433594"/><stop stop-opacity="1" stop-color="rgb(34.298706%, 24.893188%, 3.761292%)" offset="0.4375"/><stop stop-opacity="1" stop-color="rgb(34.605408%, 25.114441%, 3.794861%)" offset="0.441406"/><stop stop-opacity="1" stop-color="rgb(34.912109%, 25.337219%, 3.82843%)" offset="0.445312"/><stop stop-opacity="1" stop-color="rgb(35.217285%, 25.559998%, 3.862%)" offset="0.449219"/><stop stop-opacity="1" stop-color="rgb(35.523987%, 25.782776%, 3.895569%)" offset="0.453125"/><stop stop-opacity="1" stop-color="rgb(35.830688%, 26.004028%, 3.929138%)" offset="0.457031"/><stop stop-opacity="1" stop-color="rgb(36.13739%, 26.226807%, 3.962708%)" offset="0.460938"/><stop stop-opacity="1" stop-color="rgb(36.442566%, 26.448059%, 3.996277%)" offset="0.464844"/><stop stop-opacity="1" stop-color="rgb(36.749268%, 26.670837%, 4.029846%)" offset="0.46875"/><stop stop-opacity="1" stop-color="rgb(37.054443%, 26.893616%, 4.063416%)" offset="0.472656"/><stop stop-opacity="1" stop-color="rgb(37.361145%, 27.116394%, 4.096985%)" offset="0.476562"/><stop stop-opacity="1" stop-color="rgb(37.667847%, 27.337646%, 4.130554%)" offset="0.480469"/><stop stop-opacity="1" stop-color="rgb(37.974548%, 27.560425%, 4.164124%)" offset="0.484375"/><stop stop-opacity="1" stop-color="rgb(38.279724%, 27.781677%, 4.197693%)" offset="0.488281"/><stop stop-opacity="1" stop-color="rgb(38.586426%, 28.004456%, 4.232788%)" offset="0.492188"/><stop stop-opacity="1" stop-color="rgb(38.893127%, 28.225708%, 4.266357%)" offset="0.496094"/><stop stop-opacity="1" stop-color="rgb(39.199829%, 28.448486%, 4.299927%)" offset="0.5"/><stop stop-opacity="1" stop-color="rgb(39.505005%, 28.671265%, 4.333496%)" offset="0.503906"/><stop stop-opacity="1" stop-color="rgb(39.811707%, 28.894043%, 4.367065%)" offset="0.507812"/><stop stop-opacity="1" stop-color="rgb(40.116882%, 29.115295%, 4.400635%)" offset="0.511719"/><stop stop-opacity="1" stop-color="rgb(40.423584%, 29.338074%, 4.434204%)" offset="0.515625"/><stop stop-opacity="1" stop-color="rgb(40.730286%, 29.559326%, 4.467773%)" offset="0.519531"/><stop stop-opacity="1" stop-color="rgb(41.036987%, 29.782104%, 4.501343%)" offset="0.523438"/><stop stop-opacity="1" stop-color="rgb(41.342163%, 30.004883%, 4.534912%)" offset="0.527344"/><stop stop-opacity="1" stop-color="rgb(41.648865%, 30.227661%, 4.568481%)" offset="0.53125"/><stop stop-opacity="1" stop-color="rgb(41.955566%, 30.448914%, 4.602051%)" offset="0.535156"/><stop stop-opacity="1" stop-color="rgb(42.262268%, 30.671692%, 4.63562%)" offset="0.539062"/><stop stop-opacity="1" stop-color="rgb(42.567444%, 30.892944%, 4.669189%)" offset="0.542969"/><stop stop-opacity="1" stop-color="rgb(42.874146%, 31.115723%, 4.702759%)" offset="0.546875"/><stop stop-opacity="1" stop-color="rgb(43.179321%, 31.338501%, 4.736328%)" offset="0.550781"/><stop stop-opacity="1" stop-color="rgb(43.486023%, 31.561279%, 4.769897%)" offset="0.554688"/><stop stop-opacity="1" stop-color="rgb(43.792725%, 31.782532%, 4.803467%)" offset="0.558594"/><stop stop-opacity="1" stop-color="rgb(44.099426%, 32.00531%, 4.837036%)" offset="0.5625"/><stop stop-opacity="1" stop-color="rgb(44.404602%, 32.226562%, 4.870605%)" offset="0.566406"/><stop stop-opacity="1" stop-color="rgb(44.711304%, 32.449341%, 4.904175%)" offset="0.570312"/><stop stop-opacity="1" stop-color="rgb(45.018005%, 32.672119%, 4.937744%)" offset="0.574219"/><stop stop-opacity="1" stop-color="rgb(45.324707%, 32.894897%, 4.971313%)" offset="0.578125"/><stop stop-opacity="1" stop-color="rgb(45.629883%, 33.11615%, 5.004883%)" offset="0.582031"/><stop stop-opacity="1" stop-color="rgb(45.936584%, 33.338928%, 5.038452%)" offset="0.585938"/><stop stop-opacity="1" stop-color="rgb(46.243286%, 33.560181%, 5.072021%)" offset="0.589844"/><stop stop-opacity="1" stop-color="rgb(46.549988%, 33.782959%, 5.105591%)" offset="0.59375"/><stop stop-opacity="1" stop-color="rgb(46.855164%, 34.005737%, 5.13916%)" offset="0.597656"/><stop stop-opacity="1" stop-color="rgb(47.161865%, 34.228516%, 5.172729%)" offset="0.601562"/><stop stop-opacity="1" stop-color="rgb(47.467041%, 34.449768%, 5.206299%)" offset="0.605469"/><stop stop-opacity="1" stop-color="rgb(47.773743%, 34.672546%, 5.239868%)" offset="0.609375"/><stop stop-opacity="1" stop-color="rgb(48.080444%, 34.893799%, 5.273438%)" offset="0.613281"/><stop stop-opacity="1" stop-color="rgb(48.387146%, 35.116577%, 5.307007%)" offset="0.617188"/><stop stop-opacity="1" stop-color="rgb(48.692322%, 35.339355%, 5.340576%)" offset="0.621094"/><stop stop-opacity="1" stop-color="rgb(48.999023%, 35.562134%, 5.374146%)" offset="0.625"/><stop stop-opacity="1" stop-color="rgb(49.305725%, 35.783386%, 5.407715%)" offset="0.628906"/><stop stop-opacity="1" stop-color="rgb(49.612427%, 36.006165%, 5.441284%)" offset="0.632812"/><stop stop-opacity="1" stop-color="rgb(49.917603%, 36.227417%, 5.474854%)" offset="0.636719"/><stop stop-opacity="1" stop-color="rgb(50.224304%, 36.450195%, 5.508423%)" offset="0.640625"/><stop stop-opacity="1" stop-color="rgb(50.52948%, 36.672974%, 5.541992%)" offset="0.644531"/><stop stop-opacity="1" stop-color="rgb(50.836182%, 36.895752%, 5.575562%)" offset="0.648438"/><stop stop-opacity="1" stop-color="rgb(51.142883%, 37.117004%, 5.609131%)" offset="0.652344"/><stop stop-opacity="1" stop-color="rgb(51.449585%, 37.339783%, 5.6427%)" offset="0.65625"/><stop stop-opacity="1" stop-color="rgb(51.754761%, 37.561035%, 5.67627%)" offset="0.660156"/><stop stop-opacity="1" stop-color="rgb(52.061462%, 37.783813%, 5.709839%)" offset="0.664062"/><stop stop-opacity="1" stop-color="rgb(52.368164%, 38.006592%, 5.743408%)" offset="0.667969"/><stop stop-opacity="1" stop-color="rgb(52.674866%, 38.22937%, 5.776978%)" offset="0.671875"/><stop stop-opacity="1" stop-color="rgb(52.980042%, 38.450623%, 5.810547%)" offset="0.675781"/><stop stop-opacity="1" stop-color="rgb(53.286743%, 38.673401%, 5.844116%)" offset="0.679688"/><stop stop-opacity="1" stop-color="rgb(53.591919%, 38.894653%, 5.877686%)" offset="0.683594"/><stop stop-opacity="1" stop-color="rgb(53.898621%, 39.117432%, 5.911255%)" offset="0.6875"/><stop stop-opacity="1" stop-color="rgb(54.205322%, 39.34021%, 5.944824%)" offset="0.691406"/><stop stop-opacity="1" stop-color="rgb(54.512024%, 39.562988%, 5.978394%)" offset="0.695312"/><stop stop-opacity="1" stop-color="rgb(54.8172%, 39.784241%, 6.011963%)" offset="0.699219"/><stop stop-opacity="1" stop-color="rgb(55.123901%, 40.007019%, 6.045532%)" offset="0.703125"/><stop stop-opacity="1" stop-color="rgb(55.430603%, 40.228271%, 6.079102%)" offset="0.707031"/><stop stop-opacity="1" stop-color="rgb(55.737305%, 40.45105%, 6.112671%)" offset="0.710938"/><stop stop-opacity="1" stop-color="rgb(56.04248%, 40.673828%, 6.14624%)" offset="0.714844"/><stop stop-opacity="1" stop-color="rgb(56.349182%, 40.896606%, 6.17981%)" offset="0.71875"/><stop stop-opacity="1" stop-color="rgb(56.654358%, 41.117859%, 6.213379%)" offset="0.722656"/><stop stop-opacity="1" stop-color="rgb(56.96106%, 41.340637%, 6.246948%)" offset="0.726562"/><stop stop-opacity="1" stop-color="rgb(57.267761%, 41.56189%, 6.280518%)" offset="0.730469"/><stop stop-opacity="1" stop-color="rgb(57.574463%, 41.784668%, 6.315613%)" offset="0.734375"/><stop stop-opacity="1" stop-color="rgb(57.879639%, 42.007446%, 6.349182%)" offset="0.738281"/><stop stop-opacity="1" stop-color="rgb(58.18634%, 42.230225%, 6.382751%)" offset="0.742188"/><stop stop-opacity="1" stop-color="rgb(58.493042%, 42.451477%, 6.416321%)" offset="0.746094"/><stop stop-opacity="1" stop-color="rgb(58.799744%, 42.674255%, 6.44989%)" offset="0.75"/><stop stop-opacity="1" stop-color="rgb(59.104919%, 42.895508%, 6.483459%)" offset="0.753906"/><stop stop-opacity="1" stop-color="rgb(59.411621%, 43.118286%, 6.517029%)" offset="0.757812"/><stop stop-opacity="1" stop-color="rgb(59.716797%, 43.341064%, 6.550598%)" offset="0.761719"/><stop stop-opacity="1" stop-color="rgb(60.023499%, 43.563843%, 6.584167%)" offset="0.765625"/><stop stop-opacity="1" stop-color="rgb(60.3302%, 43.785095%, 6.617737%)" offset="0.769531"/><stop stop-opacity="1" stop-color="rgb(60.636902%, 44.007874%, 6.651306%)" offset="0.773438"/><stop stop-opacity="1" stop-color="rgb(60.942078%, 44.229126%, 6.684875%)" offset="0.777344"/><stop stop-opacity="1" stop-color="rgb(61.248779%, 44.451904%, 6.718445%)" offset="0.78125"/><stop stop-opacity="1" stop-color="rgb(61.555481%, 44.674683%, 6.752014%)" offset="0.785156"/><stop stop-opacity="1" stop-color="rgb(61.862183%, 44.897461%, 6.785583%)" offset="0.789062"/><stop stop-opacity="1" stop-color="rgb(62.167358%, 45.118713%, 6.819153%)" offset="0.792969"/><stop stop-opacity="1" stop-color="rgb(62.47406%, 45.341492%, 6.852722%)" offset="0.796875"/><stop stop-opacity="1" stop-color="rgb(62.780762%, 45.562744%, 6.886292%)" offset="0.800781"/><stop stop-opacity="1" stop-color="rgb(63.087463%, 45.785522%, 6.919861%)" offset="0.804688"/><stop stop-opacity="1" stop-color="rgb(63.392639%, 46.008301%, 6.95343%)" offset="0.808594"/><stop stop-opacity="1" stop-color="rgb(63.699341%, 46.231079%, 6.987%)" offset="0.8125"/><stop stop-opacity="1" stop-color="rgb(64.004517%, 46.452332%, 7.020569%)" offset="0.816406"/><stop stop-opacity="1" stop-color="rgb(64.311218%, 46.67511%, 7.054138%)" offset="0.820312"/><stop stop-opacity="1" stop-color="rgb(64.61792%, 46.896362%, 7.087708%)" offset="0.824219"/><stop stop-opacity="1" stop-color="rgb(64.924622%, 47.119141%, 7.121277%)" offset="0.828125"/><stop stop-opacity="1" stop-color="rgb(65.229797%, 47.341919%, 7.154846%)" offset="0.832031"/><stop stop-opacity="1" stop-color="rgb(65.536499%, 47.564697%, 7.188416%)" offset="0.835938"/><stop stop-opacity="1" stop-color="rgb(65.843201%, 47.78595%, 7.221985%)" offset="0.839844"/><stop stop-opacity="1" stop-color="rgb(66.149902%, 48.008728%, 7.255554%)" offset="0.84375"/><stop stop-opacity="1" stop-color="rgb(66.455078%, 48.22998%, 7.289124%)" offset="0.847656"/><stop stop-opacity="1" stop-color="rgb(66.76178%, 48.452759%, 7.322693%)" offset="0.851562"/><stop stop-opacity="1" stop-color="rgb(67.066956%, 48.675537%, 7.356262%)" offset="0.855469"/><stop stop-opacity="1" stop-color="rgb(67.373657%, 48.898315%, 7.389832%)" offset="0.859375"/><stop stop-opacity="1" stop-color="rgb(67.680359%, 49.119568%, 7.423401%)" offset="0.863281"/><stop stop-opacity="1" stop-color="rgb(67.987061%, 49.342346%, 7.45697%)" offset="0.867188"/><stop stop-opacity="1" stop-color="rgb(68.292236%, 49.563599%, 7.49054%)" offset="0.871094"/><stop stop-opacity="1" stop-color="rgb(68.598938%, 49.786377%, 7.524109%)" offset="0.875"/><stop stop-opacity="1" stop-color="rgb(68.90564%, 50.009155%, 7.557678%)" offset="0.878906"/><stop stop-opacity="1" stop-color="rgb(69.212341%, 50.231934%, 7.591248%)" offset="0.882812"/><stop stop-opacity="1" stop-color="rgb(69.517517%, 50.453186%, 7.624817%)" offset="0.886719"/><stop stop-opacity="1" stop-color="rgb(69.824219%, 50.675964%, 7.658386%)" offset="0.890625"/><stop stop-opacity="1" stop-color="rgb(70.129395%, 50.897217%, 7.691956%)" offset="0.894531"/><stop stop-opacity="1" stop-color="rgb(70.436096%, 51.119995%, 7.725525%)" offset="0.898438"/><stop stop-opacity="1" stop-color="rgb(70.742798%, 51.342773%, 7.759094%)" offset="0.902344"/><stop stop-opacity="1" stop-color="rgb(71.0495%, 51.565552%, 7.792664%)" offset="0.90625"/><stop stop-opacity="1" stop-color="rgb(71.354675%, 51.786804%, 7.826233%)" offset="0.910156"/><stop stop-opacity="1" stop-color="rgb(71.661377%, 52.009583%, 7.859802%)" offset="0.914062"/><stop stop-opacity="1" stop-color="rgb(71.968079%, 52.230835%, 7.893372%)" offset="0.917969"/><stop stop-opacity="1" stop-color="rgb(72.27478%, 52.453613%, 7.926941%)" offset="0.921875"/><stop stop-opacity="1" stop-color="rgb(72.579956%, 52.676392%, 7.96051%)" offset="0.925781"/><stop stop-opacity="1" stop-color="rgb(72.886658%, 52.89917%, 7.99408%)" offset="0.929688"/><stop stop-opacity="1" stop-color="rgb(73.191833%, 53.120422%, 8.027649%)" offset="0.933594"/><stop stop-opacity="1" stop-color="rgb(73.498535%, 53.343201%, 8.061218%)" offset="0.9375"/><stop stop-opacity="1" stop-color="rgb(73.805237%, 53.564453%, 8.094788%)" offset="0.941406"/><stop stop-opacity="1" stop-color="rgb(74.111938%, 53.787231%, 8.128357%)" offset="0.945312"/><stop stop-opacity="1" stop-color="rgb(74.417114%, 54.01001%, 8.161926%)" offset="0.949219"/><stop stop-opacity="1" stop-color="rgb(74.723816%, 54.232788%, 8.195496%)" offset="0.953125"/><stop stop-opacity="1" stop-color="rgb(75.030518%, 54.454041%, 8.229065%)" offset="0.957031"/><stop stop-opacity="1" stop-color="rgb(75.337219%, 54.676819%, 8.262634%)" offset="0.960938"/><stop stop-opacity="1" stop-color="rgb(75.642395%, 54.898071%, 8.296204%)" offset="0.964844"/><stop stop-opacity="1" stop-color="rgb(75.949097%, 55.12085%, 8.329773%)" offset="0.96875"/><stop stop-opacity="1" stop-color="rgb(76.254272%, 55.342102%, 8.363342%)" offset="0.972656"/><stop stop-opacity="1" stop-color="rgb(76.560974%, 55.56488%, 8.396912%)" offset="0.976562"/><stop stop-opacity="1" stop-color="rgb(76.867676%, 55.787659%, 8.430481%)" offset="0.980469"/><stop stop-opacity="1" stop-color="rgb(77.174377%, 56.010437%, 8.465576%)" offset="0.984375"/><stop stop-opacity="1" stop-color="rgb(77.479553%, 56.231689%, 8.499146%)" offset="0.988281"/><stop stop-opacity="1" stop-color="rgb(77.786255%, 56.454468%, 8.532715%)" offset="0.992188"/><stop stop-opacity="1" stop-color="rgb(78.092957%, 56.67572%, 8.566284%)" offset="0.996094"/><stop stop-opacity="1" stop-color="rgb(78.399658%, 56.898499%, 8.599854%)" offset="1"/></linearGradient><clipPath id="5360c71110"><path d="M 420 17 L 880 17 L 880 617 L 420 617 Z M 420 17 " clip-rule="nonzero"/></clipPath><clipPath id="8e787811d2"><path d="M 646.695312 0 L 897.222656 119.34375 L 652.410156 633.261719 L 401.882812 513.921875 Z M 646.695312 0 " clip-rule="nonzero"/></clipPath><clipPath id="bbb3a1b28a"><path d="M 646.695312 0 L 897.222656 119.34375 L 652.410156 633.261719 L 401.882812 513.921875 Z M 646.695312 0 " clip-rule="nonzero"/></clipPath><clipPath id="5e8d3537e7"><path d="M 418 15 L 882 15 L 882 619 L 418 619 Z M 418 15 " clip-rule="nonzero"/></clipPath><clipPath id="a7eb544eab"><path d="M 646.695312 0 L 897.222656 119.34375 L 652.410156 633.261719 L 401.882812 513.921875 Z M 646.695312 0 " clip-rule="nonzero"/></clipPath><clipPath id="da7a73f306"><path d="M 646.695312 0 L 897.222656 119.34375 L 652.410156 633.261719 L 401.882812 513.921875 Z M 646.695312 0 " clip-rule="nonzero"/></clipPath><clipPath id="12604070ae"><path d="M 430 27 L 870 27 L 870 607 L 430 607 Z M 430 27 " clip-rule="nonzero"/></clipPath><clipPath id="543fa86ac9"><path d="M 646.695312 0 L 897.222656 119.34375 L 652.410156 633.261719 L 401.882812 513.921875 Z M 646.695312 0 " clip-rule="nonzero"/></clipPath><clipPath id="bce0942a99"><path d="M 646.695312 0 L 897.222656 119.34375 L 652.410156 633.261719 L 401.882812 513.921875 Z M 646.695312 0 " clip-rule="nonzero"/></clipPath><clipPath id="6771151c84"><path d="M 712 47 L 817 47 L 817 111 L 712 111 Z M 712 47 " clip-rule="nonzero"/></clipPath><clipPath id="2433ee4d85"><path d="M 646.695312 0 L 897.222656 119.34375 L 652.410156 633.261719 L 401.882812 513.921875 Z M 646.695312 0 " clip-rule="nonzero"/></clipPath><clipPath id="e29243942b"><path d="M 646.695312 0 L 897.222656 119.34375 L 652.410156 633.261719 L 401.882812 513.921875 Z M 646.695312 0 " clip-rule="nonzero"/></clipPath><clipPath id="9d1f324bda"><path d="M 801 254 L 833 254 L 833 313 L 801 313 Z M 801 254 " clip-rule="nonzero"/></clipPath><clipPath id="002ecda71e"><path d="M 646.695312 0 L 897.222656 119.34375 L 652.410156 633.261719 L 401.882812 513.921875 Z M 646.695312 0 " clip-rule="nonzero"/></clipPath><clipPath id="103cb74f5d"><path d="M 646.695312 0 L 897.222656 119.34375 L 652.410156 633.261719 L 401.882812 513.921875 Z M 646.695312 0 " clip-rule="nonzero"/></clipPath><clipPath id="c25db81c3f"><path d="M 566 129 L 589 129 L 589 171 L 566 171 Z M 566 129 " clip-rule="nonzero"/></clipPath><clipPath id="7609c21395"><path d="M 646.695312 0 L 897.222656 119.34375 L 652.410156 633.261719 L 401.882812 513.921875 Z M 646.695312 0 " clip-rule="nonzero"/></clipPath><clipPath id="0aa00aeb5f"><path d="M 646.695312 0 L 897.222656 119.34375 L 652.410156 633.261719 L 401.882812 513.921875 Z M 646.695312 0 " clip-rule="nonzero"/></clipPath><clipPath id="aaab8ca664"><path d="M 591 95 L 606 95 L 606 117 L 591 117 Z M 591 95 " clip-rule="nonzero"/></clipPath><clipPath id="2549790779"><path d="M 646.695312 0 L 897.222656 119.34375 L 652.410156 633.261719 L 401.882812 513.921875 Z M 646.695312 0 " clip-rule="nonzero"/></clipPath><clipPath id="4fb256240d"><path d="M 646.695312 0 L 897.222656 119.34375 L 652.410156 633.261719 L 401.882812 513.921875 Z M 646.695312 0 " clip-rule="nonzero"/></clipPath><clipPath id="7456dc3c9d"><path d="M 542 180 L 565 180 L 565 222 L 542 222 Z M 542 180 " clip-rule="nonzero"/></clipPath><clipPath id="b2288deed6"><path d="M 646.695312 0 L 897.222656 119.34375 L 652.410156 633.261719 L 401.882812 513.921875 Z M 646.695312 0 " clip-rule="nonzero"/></clipPath><clipPath id="0d05f8b866"><path d="M 646.695312 0 L 897.222656 119.34375 L 652.410156 633.261719 L 401.882812 513.921875 Z M 646.695312 0 " clip-rule="nonzero"/></clipPath><clipPath id="c8872c79bb"><path d="M 724 60 L 734 60 L 734 69 L 724 69 Z M 724 60 " clip-rule="nonzero"/></clipPath><clipPath id="418af86117"><path d="M 646.695312 0 L 897.222656 119.34375 L 652.410156 633.261719 L 401.882812 513.921875 Z M 646.695312 0 " clip-rule="nonzero"/></clipPath><clipPath id="8b9c5689bb"><path d="M 646.695312 0 L 897.222656 119.34375 L 652.410156 633.261719 L 401.882812 513.921875 Z M 646.695312 0 " clip-rule="nonzero"/></clipPath><clipPath id="be0370a6ea"><path d="M 726 61 L 732 61 L 732 67 L 726 67 Z M 726 61 " clip-rule="nonzero"/></clipPath><clipPath id="102881efdd"><path d="M 646.695312 0 L 897.222656 119.34375 L 652.410156 633.261719 L 401.882812 513.921875 Z M 646.695312 0 " clip-rule="nonzero"/></clipPath><clipPath id="fb5fe4dcc4"><path d="M 646.695312 0 L 897.222656 119.34375 L 652.410156 633.261719 L 401.882812 513.921875 Z M 646.695312 0 " clip-rule="nonzero"/></clipPath><clipPath id="957ac27640"><path d="M 740 68 L 786 68 L 786 93 L 740 93 Z M 740 68 " clip-rule="nonzero"/></clipPath><clipPath id="a4f544d103"><path d="M 646.695312 0 L 897.222656 119.34375 L 652.410156 633.261719 L 401.882812 513.921875 Z M 646.695312 0 " clip-rule="nonzero"/></clipPath><clipPath id="259ae90a45"><path d="M 646.695312 0 L 897.222656 119.34375 L 652.410156 633.261719 L 401.882812 513.921875 Z M 646.695312 0 " clip-rule="nonzero"/></clipPath></defs><rect x="-96" fill="url(#60cd5fb375)" width="1152" y="-95.999999" height="1151.999986"/><g clip-path="url(#5360c71110)"><g clip-path="url(#8e787811d2)"><g clip-path="url(#bbb3a1b28a)"><path fill="#1d1d1b" d="M 611.691406 612.421875 L 444.761719 532.902344 C 423.515625 522.78125 414.5 497.355469 424.621094 476.109375 L 631.542969 41.726562 C 641.664062 20.484375 667.089844 11.464844 688.335938 21.585938 L 855.261719 101.105469 C 876.507812 111.222656 885.527344 136.648438 875.40625 157.894531 L 668.480469 592.277344 C 658.363281 613.523438 632.933594 622.539062 611.691406 612.421875 " fill-opacity="1" fill-rule="nonzero"/></g></g></g><g clip-path="url(#5e8d3537e7)"><g clip-path="url(#a7eb544eab)"><g clip-path="url(#da7a73f306)"><path fill="#b2b2b2" d="M 687.667969 22.984375 C 667.230469 13.246094 642.675781 21.953125 632.941406 42.394531 L 426.015625 476.777344 C 416.277344 497.214844 424.988281 521.769531 445.429688 531.503906 L 612.355469 611.023438 C 632.792969 620.761719 657.347656 612.054688 667.085938 591.613281 L 874.007812 157.230469 C 883.746094 136.789062 875.035156 112.238281 854.597656 102.5 Z M 611.023438 613.820312 L 444.09375 534.300781 C 422.113281 523.832031 412.75 497.425781 423.21875 475.445312 L 630.144531 41.0625 C 640.613281 19.078125 667.019531 9.714844 689 20.1875 L 855.929688 99.703125 C 877.910156 110.175781 887.273438 136.578125 876.804688 158.5625 L 669.878906 592.945312 C 659.40625 614.925781 633.003906 624.289062 611.023438 613.820312 " fill-opacity="1" fill-rule="nonzero"/></g></g></g><g clip-path="url(#12604070ae)"><g clip-path="url(#543fa86ac9)"><g clip-path="url(#bce0942a99)"><path fill="#545454" d="M 617.070312 603.859375 L 448.023438 523.332031 C 432.675781 516.019531 426.164062 497.65625 433.472656 482.308594 L 641.636719 45.324219 C 648.949219 29.976562 667.3125 23.464844 682.660156 30.773438 L 851.703125 111.300781 C 867.046875 118.609375 873.5625 136.976562 866.253906 152.320312 L 658.089844 589.308594 C 650.777344 604.65625 632.414062 611.167969 617.070312 603.859375 " fill-opacity="1" fill-rule="nonzero"/></g></g></g><g clip-path="url(#6771151c84)"><g clip-path="url(#2433ee4d85)"><g clip-path="url(#e29243942b)"><path fill="#1d1d1b" d="M 816.261719 93.558594 L 718.769531 47.117188 L 713.378906 58.4375 C 711.085938 63.242188 713.128906 69 717.933594 71.289062 L 798.011719 109.4375 C 802.824219 111.726562 808.578125 109.683594 810.867188 104.875 L 816.261719 93.558594 " fill-opacity="1" fill-rule="nonzero"/></g></g></g><g clip-path="url(#9d1f324bda)"><g clip-path="url(#002ecda71e)"><g clip-path="url(#103cb74f5d)"><path fill="#b2b2b2" d="M 804.980469 312.863281 L 801.269531 311.09375 L 828.4375 254.066406 L 832.148438 255.832031 L 804.980469 312.863281 " fill-opacity="1" fill-rule="nonzero"/></g></g></g><g clip-path="url(#c25db81c3f)"><g clip-path="url(#7609c21395)"><g clip-path="url(#0aa00aeb5f)"><path fill="#b2b2b2" d="M 570.136719 170.636719 L 566.425781 168.867188 L 585.136719 129.589844 L 588.847656 131.355469 L 570.136719 170.636719 " fill-opacity="1" fill-rule="nonzero"/></g></g></g><g clip-path="url(#aaab8ca664)"><g clip-path="url(#2549790779)"><g clip-path="url(#4fb256240d)"><path fill="#b2b2b2" d="M 595.6875 116.996094 L 591.976562 115.226562 L 601.332031 95.585938 L 605.042969 97.355469 L 595.6875 116.996094 " fill-opacity="1" fill-rule="nonzero"/></g></g></g><g clip-path="url(#7456dc3c9d)"><g clip-path="url(#b2288deed6)"><g clip-path="url(#0d05f8b866)"><path fill="#b2b2b2" d="M 545.898438 221.519531 L 542.1875 219.75 L 560.898438 180.472656 L 564.609375 182.238281 L 545.898438 221.519531 " fill-opacity="1" fill-rule="nonzero"/></g></g></g><g clip-path="url(#c8872c79bb)"><g clip-path="url(#418af86117)"><g clip-path="url(#8b9c5689bb)"><path fill="#000000" d="M 732.726562 66.050781 C 731.722656 68.15625 729.203125 69.046875 727.101562 68.042969 C 724.996094 67.042969 724.105469 64.527344 725.109375 62.421875 C 726.109375 60.316406 728.625 59.425781 730.730469 60.425781 C 732.832031 61.429688 733.726562 63.945312 732.726562 66.050781 " fill-opacity="1" fill-rule="nonzero"/></g></g></g><g clip-path="url(#be0370a6ea)"><g clip-path="url(#102881efdd)"><g clip-path="url(#fb5fe4dcc4)"><path fill="#1d1d1b" d="M 731.152344 65.300781 C 730.5625 66.535156 729.085938 67.058594 727.851562 66.472656 C 726.617188 65.882812 726.09375 64.40625 726.679688 63.171875 C 727.269531 61.9375 728.746094 61.410156 729.980469 62 C 731.214844 62.589844 731.742188 64.066406 731.152344 65.300781 " fill-opacity="1" fill-rule="nonzero"/></g></g></g><g clip-path="url(#957ac27640)"><g clip-path="url(#a4f544d103)"><g clip-path="url(#259ae90a45)"><path fill="#000000" d="M 782.664062 91.925781 L 741.203125 72.175781 C 740.265625 71.730469 739.867188 70.605469 740.3125 69.664062 C 740.761719 68.726562 741.886719 68.328125 742.828125 68.773438 L 784.285156 88.523438 C 785.226562 88.972656 785.621094 90.097656 785.175781 91.035156 C 784.726562 91.972656 783.601562 92.375 782.664062 91.925781 " fill-opacity="1" fill-rule="nonzero"/></g></g></g><path fill="#506475" d="M 548.488281 475.496094 C 536.535156 482.914062 521.273438 482.101562 510.074219 473.617188 C 489.335938 457.890625 465.289062 432.21875 440.65625 404.78125 C 428.332031 389.882812 412.84375 381.21875 391.710938 383.65625 L 210.238281 383.65625 C 189.128906 381.21875 173.617188 389.882812 161.3125 404.78125 C 160.644531 405.53125 159.976562 406.261719 159.3125 406.988281 C 135.371094 433.597656 112.050781 458.304688 91.894531 473.617188 C 80.675781 482.101562 65.433594 482.914062 53.460938 475.496094 C 23.855469 457.222656 15.132812 422.886719 18.460938 380.675781 C 18.484375 380.28125 18.527344 379.882812 18.566406 379.46875 C 19.253906 370.863281 20.484375 361.945312 22.125 352.757812 L 22.148438 352.609375 C 22.273438 351.902344 22.417969 351.171875 22.542969 350.464844 C 30.351562 308.085938 46.902344 260.476562 65.039062 214.226562 C 70.410156 200.535156 75.90625 186.972656 81.359375 173.679688 C 82.941406 169.847656 84.507812 165.992188 86.066406 162.21875 L 101.785156 153.199219 L 102.035156 152.363281 L 105.429688 139.90625 C 106.886719 134.507812 110.65625 130.007812 115.714844 127.632812 C 138.242188 116.964844 161.5 109.089844 185.609375 104.507812 C 186.234375 104.382812 186.839844 104.257812 187.460938 104.152344 C 192.082031 103.320312 196.875 104.214844 200.910156 106.675781 L 218.628906 117.488281 C 224.25 120.945312 230.726562 122.78125 237.347656 122.78125 L 364.621094 122.78125 C 371.222656 122.78125 377.695312 120.945312 383.339844 117.488281 L 401.039062 106.675781 C 405.054688 104.214844 409.867188 103.320312 414.507812 104.152344 C 439.242188 108.695312 463.125 116.695312 486.234375 127.632812 C 491.292969 130.007812 495.042969 134.507812 496.539062 139.90625 L 500.160156 153.199219 L 515.882812 162.21875 C 517.546875 166.242188 519.234375 170.324219 520.898438 174.429688 C 545.011719 233.121094 569.972656 297.480469 579.800781 352.652344 C 589.589844 407.511719 584.402344 453.304688 548.488281 475.496094 " fill-opacity="1" fill-rule="nonzero"/><path fill="#283777" d="M 71.289062 481.1875 C 65.027344 481.1875 58.761719 479.46875 53.152344 475.996094 C 25.691406 459.046875 14.152344 427.851562 17.878906 380.628906 C 17.898438 380.257812 17.9375 379.871094 17.976562 379.464844 C 18.644531 371.125 19.8125 362.371094 21.550781 352.652344 C 21.546875 352.664062 21.535156 352.59375 21.578125 352.457031 C 21.640625 352.117188 21.707031 351.773438 21.769531 351.425781 C 21.839844 351.066406 21.90625 350.714844 21.96875 350.363281 C 30.652344 303.207031 50.398438 249.960938 64.492188 214.011719 C 69.167969 202.085938 74.355469 189.203125 80.816406 173.457031 C 81.546875 171.6875 82.273438 169.917969 82.996094 168.148438 C 83.839844 166.085938 84.683594 164.027344 85.523438 161.996094 L 85.601562 161.808594 L 101.289062 152.804688 L 101.476562 152.195312 L 104.863281 139.753906 C 106.371094 134.167969 110.234375 129.558594 115.46875 127.101562 C 138.542969 116.171875 162.105469 108.378906 185.5 103.929688 L 185.78125 103.875 C 186.308594 103.765625 186.828125 103.664062 187.363281 103.574219 C 192.132812 102.710938 197.054688 103.636719 201.21875 106.171875 L 218.933594 116.984375 C 224.472656 120.390625 230.839844 122.191406 237.347656 122.191406 L 364.621094 122.191406 C 371.113281 122.191406 377.476562 120.390625 383.035156 116.984375 L 400.730469 106.171875 C 404.878906 103.632812 409.8125 102.710938 414.609375 103.574219 C 438.640625 107.988281 462.820312 115.902344 486.484375 127.101562 C 491.679688 129.542969 495.550781 134.152344 497.105469 139.746094 L 500.664062 152.8125 L 516.347656 161.808594 L 516.421875 161.996094 C 518.089844 166.019531 519.777344 170.101562 521.445312 174.207031 C 546.355469 234.851562 570.734375 298.433594 580.378906 352.550781 C 591.617188 415.542969 581.285156 455.921875 548.796875 475.996094 L 548.796875 475.992188 C 536.78125 483.453125 521.078125 482.6875 509.71875 474.089844 C 488.679688 458.128906 463.886719 431.535156 440.222656 405.175781 C 426.738281 388.875 410.886719 382.035156 391.777344 384.238281 L 210.238281 384.242188 C 191.035156 382.027344 175.210938 388.871094 161.761719 405.15625 C 161.121094 405.882812 160.488281 406.578125 159.855469 407.265625 L 159.746094 407.386719 C 136.957031 432.707031 113.007812 458.316406 92.25 474.089844 C 86.011719 478.804688 78.65625 481.1875 71.289062 481.1875 M 22.710938 352.796875 L 22.707031 352.859375 C 20.972656 362.539062 19.8125 371.253906 19.152344 379.515625 C 19.105469 379.96875 19.070312 380.335938 19.050781 380.707031 C 15.359375 427.464844 26.714844 458.300781 53.769531 474.996094 C 65.5625 482.304688 80.390625 481.582031 91.542969 473.152344 C 112.21875 457.441406 136.125 431.878906 158.878906 406.597656 L 158.988281 406.472656 C 159.617188 405.789062 160.246094 405.097656 160.871094 404.390625 C 174.582031 387.792969 190.761719 380.816406 210.308594 383.070312 L 391.710938 383.066406 C 411.1875 380.816406 427.367188 387.796875 441.109375 404.40625 C 464.71875 430.707031 489.46875 457.257812 510.425781 473.152344 C 521.402344 481.460938 536.570312 482.203125 548.175781 474.996094 C 580.207031 455.207031 590.367188 415.222656 579.222656 352.753906 C 569.601562 298.75 545.242188 235.238281 520.355469 174.652344 C 518.714844 170.609375 517.058594 166.589844 515.417969 162.628906 L 499.660156 153.585938 L 495.972656 140.058594 C 494.511719 134.796875 490.871094 130.457031 485.984375 128.164062 C 462.414062 117.007812 438.328125 109.121094 414.402344 104.730469 C 409.882812 103.917969 405.246094 104.789062 401.34375 107.175781 L 383.648438 117.988281 C 377.90625 121.507812 371.328125 123.367188 364.621094 123.367188 L 237.347656 123.367188 C 230.621094 123.367188 224.042969 121.507812 218.324219 117.988281 L 200.605469 107.175781 C 196.6875 104.789062 192.046875 103.921875 187.566406 104.730469 C 187.039062 104.816406 186.527344 104.921875 186.011719 105.023438 L 185.722656 105.082031 C 162.421875 109.511719 138.957031 117.277344 115.964844 128.164062 C 111.046875 130.472656 107.414062 134.808594 105.996094 140.058594 L 102.28125 153.589844 L 86.53125 162.628906 C 85.714844 164.601562 84.902344 166.59375 84.082031 168.59375 C 83.359375 170.363281 82.632812 172.136719 81.902344 173.902344 C 75.445312 189.644531 70.257812 202.523438 65.582031 214.4375 C 51.507812 250.34375 31.792969 303.519531 23.121094 350.574219 C 23.0625 350.921875 22.992188 351.28125 22.921875 351.644531 C 22.855469 352 22.789062 352.359375 22.726562 352.710938 L 22.710938 352.796875 " fill-opacity="1" fill-rule="nonzero"/><path fill="#a8b5ba" d="M 411.050781 110.804688 C 408.8125 110.804688 406.605469 111.421875 404.664062 112.609375 L 386.953125 123.4375 C 380.222656 127.554688 372.5 129.730469 364.613281 129.730469 L 237.339844 129.730469 C 229.453125 129.730469 221.730469 127.554688 215 123.4375 L 197.289062 112.609375 C 195.347656 111.421875 193.140625 110.804688 190.902344 110.804688 C 190.167969 110.804688 189.433594 110.871094 188.703125 111.003906 C 165.320312 115.292969 141.765625 123 118.679688 133.914062 C 115.488281 135.425781 113.109375 138.25 112.152344 141.675781 C 113.246094 140.828125 114.441406 140.09375 115.714844 139.496094 C 138.242188 128.828125 161.5 120.953125 185.609375 116.367188 C 186.234375 116.242188 186.839844 116.117188 187.460938 116.011719 C 188.589844 115.808594 189.726562 115.710938 190.859375 115.710938 C 194.375 115.710938 197.859375 116.675781 200.910156 118.535156 L 218.621094 129.34375 L 208.542969 149.066406 C 208.910156 149.433594 209.277344 149.8125 209.636719 150.195312 L 214.632812 155.527344 C 215.492188 155.101562 216.230469 154.402344 216.699219 153.480469 L 227.105469 133.128906 C 230.410156 134.117188 233.855469 134.640625 237.347656 134.640625 L 364.621094 134.640625 C 369.875 134.640625 375.042969 133.460938 379.777344 131.242188 L 390.472656 152.160156 L 392.316406 150.195312 C 393.925781 148.476562 395.652344 146.902344 397.472656 145.476562 L 387.828125 126.605469 L 401.039062 118.535156 C 404.074219 116.675781 407.566406 115.710938 411.097656 115.710938 C 412.234375 115.710938 413.375 115.808594 414.507812 116.011719 C 439.242188 120.554688 463.125 128.554688 486.234375 139.496094 C 487.515625 140.09375 488.707031 140.832031 489.804688 141.683594 C 488.847656 138.257812 486.46875 135.425781 483.269531 133.914062 C 460.191406 123 436.632812 115.292969 413.253906 111.003906 C 412.523438 110.871094 411.785156 110.804688 411.050781 110.804688 " fill-opacity="1" fill-rule="nonzero"/><path fill="#ffffff" d="M 579.800781 352.652344 C 569.972656 297.480469 545.011719 233.121094 520.898438 174.429688 C 519.234375 170.324219 517.546875 166.242188 515.882812 162.21875 L 500.160156 153.199219 L 500.160156 153.1875 L 436.925781 137.140625 C 420.792969 133.042969 403.703125 138.042969 392.316406 150.195312 L 366.589844 177.640625 C 359.9375 184.734375 350.648438 188.761719 340.921875 188.761719 L 261.03125 188.761719 C 251.308594 188.761719 242.015625 184.734375 235.363281 177.640625 L 209.636719 150.195312 C 198.25 138.042969 181.160156 133.042969 165.027344 137.140625 L 101.785156 153.199219 L 86.066406 162.21875 C 84.507812 165.992188 82.941406 169.847656 81.359375 173.679688 C 75.90625 186.972656 70.410156 200.535156 65.039062 214.226562 C 46.902344 260.476562 30.351562 308.085938 22.542969 350.464844 C 22.417969 351.171875 22.273438 351.902344 22.148438 352.609375 L 22.125 352.757812 C 20.484375 361.945312 19.253906 370.863281 18.566406 379.46875 C 18.527344 379.882812 18.484375 380.28125 18.460938 380.675781 C 15.132812 422.886719 23.855469 457.222656 53.460938 475.496094 C 65.433594 482.914062 80.675781 482.101562 91.894531 473.617188 C 112.050781 458.304688 135.371094 433.597656 159.3125 406.988281 C 159.976562 406.261719 160.644531 405.53125 161.3125 404.78125 C 173.617188 389.882812 189.128906 381.21875 210.238281 383.65625 L 391.710938 383.65625 C 412.84375 381.21875 428.332031 389.882812 440.660156 404.78125 C 465.289062 432.21875 489.335938 457.890625 510.074219 473.617188 C 521.273438 482.101562 536.535156 482.914062 548.488281 475.496094 C 584.402344 453.304688 589.589844 407.511719 579.800781 352.652344 " fill-opacity="1" fill-rule="nonzero"/><path fill="#abb1d6" d="M 427.863281 287.242188 C 423.511719 287.242188 419.640625 291.667969 421.464844 296.605469 C 421.730469 297.332031 421.972656 298.082031 422.214844 298.832031 C 427.292969 315.265625 421.902344 332.933594 409.636719 343.992188 L 409.613281 343.992188 C 406.125 343.238281 402.449219 342.835938 398.574219 342.835938 C 396.355469 342.835938 394.070312 342.96875 391.71875 343.242188 L 255.765625 343.242188 C 247.992188 349.472656 238.136719 353.199219 227.425781 353.199219 C 222.183594 353.199219 217.140625 352.308594 212.449219 350.660156 L 212.671875 350.964844 L 210.285156 350 C 205.960938 348.246094 202.019531 345.890625 198.542969 343.050781 C 183.214844 344.425781 171.226562 352.382812 161.308594 364.371094 C 160.65625 365.121094 159.976562 365.847656 159.300781 366.597656 C 135.359375 393.195312 112.046875 417.90625 91.898438 433.222656 C 85.8125 437.816406 78.550781 440.164062 71.265625 440.164062 C 65.113281 440.164062 58.949219 438.492188 53.46875 435.089844 C 39.65625 426.582031 30.398438 414.574219 24.785156 399.898438 C 25.414062 430.726562 34.570312 455.640625 57.117188 469.582031 C 61.496094 472.292969 66.390625 473.632812 71.269531 473.632812 C 77.039062 473.632812 82.796875 471.757812 87.679688 468.058594 C 108.167969 452.523438 132.632812 426.289062 156.03125 400.242188 C 169.363281 384.164062 184.867188 376.277344 203.199219 376.277344 C 205.628906 376.277344 208.101562 376.414062 210.628906 376.691406 L 391.324219 376.691406 C 393.855469 376.414062 396.332031 376.273438 398.757812 376.273438 C 417.09375 376.273438 432.589844 384.164062 445.921875 400.242188 C 469.320312 426.292969 493.789062 452.523438 514.273438 468.058594 C 519.15625 471.757812 524.914062 473.632812 530.683594 473.632812 C 535.566406 473.632812 540.457031 472.292969 544.835938 469.582031 C 567.378906 455.640625 576.539062 430.722656 577.167969 399.894531 C 571.550781 414.5625 562.289062 426.570312 548.484375 435.089844 C 543.015625 438.492188 536.851562 440.164062 530.699219 440.164062 C 523.417969 440.164062 516.152344 437.816406 510.078125 433.222656 C 489.328125 417.496094 465.289062 391.816406 440.671875 364.371094 L 440.59375 364.28125 C 436.835938 359.773438 436.371094 353.285156 439.855469 348.558594 C 447.636719 337.996094 450.542969 324.0625 446.789062 310.859375 C 444.273438 302.171875 439.410156 294.910156 433.027344 289.5625 C 432.710938 289.296875 432.398438 289.03125 432.058594 288.761719 C 430.726562 287.703125 429.273438 287.242188 427.863281 287.242188 " fill-opacity="1" fill-rule="nonzero"/><path fill="#101010" d="M 530.671875 487.570312 C 521.949219 487.570312 513.25 484.746094 505.875 479.152344 C 484.429688 462.894531 459.371094 436.039062 435.484375 409.441406 C 435.421875 409.371094 435.359375 409.296875 435.296875 409.226562 C 423.15625 394.539062 409.5625 388.609375 392.503906 390.566406 C 392.242188 390.59375 391.976562 390.609375 391.710938 390.609375 L 210.242188 390.609375 C 209.976562 390.609375 209.710938 390.59375 209.449219 390.566406 C 192.394531 388.613281 178.796875 394.539062 166.65625 409.226562 C 166.59375 409.296875 166.53125 409.371094 166.46875 409.441406 C 142.585938 436.039062 117.527344 462.894531 96.078125 479.152344 C 82.449219 489.488281 64.285156 490.378906 49.804688 481.425781 C 13.753906 459.132812 2.859375 414.507812 16.5 345 C 27.71875 287.832031 53.847656 222.042969 79.648438 159.554688 C 80.238281 158.128906 81.277344 156.941406 82.613281 156.175781 L 95.839844 148.582031 L 98.714844 138.070312 C 100.734375 130.691406 105.847656 124.589844 112.738281 121.328125 C 136.914062 109.898438 161.625 101.816406 186.195312 97.3125 C 192.523438 96.152344 199.039062 97.367188 204.542969 100.730469 L 222.253906 111.5625 C 226.796875 114.339844 232.011719 115.808594 237.339844 115.808594 L 364.613281 115.808594 C 369.941406 115.808594 375.15625 114.339844 379.699219 111.5625 L 397.410156 100.730469 C 402.910156 97.367188 409.425781 96.152344 415.761719 97.3125 C 440.328125 101.820312 465.042969 109.898438 489.214844 121.328125 C 496.109375 124.589844 501.21875 130.691406 503.238281 138.070312 L 506.117188 148.582031 L 519.339844 156.175781 C 520.675781 156.941406 521.71875 158.128906 522.304688 159.554688 C 548.105469 222.042969 574.234375 287.832031 585.453125 345 C 599.089844 414.507812 588.203125 459.132812 552.148438 481.425781 C 545.503906 485.535156 538.078125 487.570312 530.671875 487.570312 M 445.921875 400.242188 C 469.320312 426.292969 493.789062 452.523438 514.273438 468.058594 C 523.289062 474.890625 535.285156 475.492188 544.835938 469.582031 C 616.363281 425.351562 553.128906 270.671875 510.355469 167.066406 L 496.703125 159.226562 C 495.105469 158.308594 493.941406 156.800781 493.457031 155.023438 L 489.824219 141.746094 C 488.878906 138.289062 486.488281 135.4375 483.269531 133.914062 C 460.191406 123 436.632812 115.292969 413.253906 111.003906 C 410.292969 110.460938 407.242188 111.035156 404.664062 112.609375 L 386.953125 123.4375 C 380.222656 127.554688 372.5 129.730469 364.613281 129.730469 L 237.339844 129.730469 C 229.453125 129.730469 221.730469 127.554688 215 123.4375 L 197.289062 112.609375 C 194.714844 111.035156 191.664062 110.464844 188.703125 111.003906 C 165.320312 115.292969 141.765625 123 118.679688 133.914062 C 115.464844 135.433594 113.078125 138.289062 112.132812 141.746094 L 108.5 155.027344 C 108.011719 156.800781 106.84375 158.308594 105.25 159.226562 L 91.597656 167.066406 C 48.824219 270.671875 -14.410156 425.351562 57.117188 469.582031 C 66.671875 475.492188 78.664062 474.890625 87.679688 468.058594 C 108.167969 452.523438 132.632812 426.289062 156.03125 400.242188 C 171.128906 382.035156 189.007812 374.332031 210.628906 376.691406 L 391.324219 376.691406 C 412.953125 374.328125 430.824219 382.035156 445.921875 400.242188 " fill-opacity="1" fill-rule="nonzero"/><path fill="#101010" d="M 340.921875 194.949219 L 261.03125 194.949219 C 249.644531 194.949219 238.644531 190.183594 230.855469 181.871094 L 205.128906 154.425781 C 195.28125 143.921875 180.492188 139.59375 166.546875 143.136719 L 103.308594 159.1875 C 99.996094 160.023438 96.632812 158.023438 95.796875 154.707031 C 94.957031 151.398438 96.960938 148.03125 100.269531 147.191406 L 163.507812 131.140625 C 181.8125 126.496094 201.222656 132.171875 214.148438 145.960938 L 239.871094 173.40625 C 245.335938 179.234375 253.046875 182.578125 261.03125 182.578125 L 340.921875 182.578125 C 348.90625 182.578125 356.617188 179.234375 362.082031 173.40625 L 387.808594 145.960938 C 400.730469 132.175781 420.132812 126.496094 438.449219 131.140625 L 501.683594 147.191406 C 504.992188 148.03125 506.996094 151.398438 506.15625 154.707031 C 505.320312 158.023438 501.949219 160.023438 498.644531 159.1875 L 435.410156 143.136719 C 421.453125 139.59375 406.671875 143.921875 396.824219 154.425781 L 371.097656 181.871094 C 363.308594 190.183594 352.308594 194.949219 340.921875 194.949219 " fill-opacity="1" fill-rule="nonzero"/><path fill="#101010" d="M 209.632812 154.835938 C 208.921875 154.835938 208.203125 154.671875 207.523438 154.328125 C 205.246094 153.15625 204.34375 150.363281 205.507812 148.082031 L 220.683594 118.390625 C 221.851562 116.109375 224.648438 115.207031 226.925781 116.375 C 229.207031 117.539062 230.109375 120.335938 228.941406 122.617188 L 213.765625 152.308594 C 212.945312 153.910156 211.316406 154.835938 209.632812 154.835938 " fill-opacity="1" fill-rule="nonzero"/><path fill="#101010" d="M 392.34375 154.835938 C 390.65625 154.835938 389.03125 153.914062 388.210938 152.308594 L 373.03125 122.617188 C 371.867188 120.335938 372.769531 117.539062 375.050781 116.375 C 377.332031 115.207031 380.125 116.109375 381.289062 118.390625 L 396.46875 148.082031 C 397.632812 150.363281 396.730469 153.15625 394.449219 154.328125 C 393.777344 154.671875 393.054688 154.835938 392.34375 154.835938 " fill-opacity="1" fill-rule="nonzero"/><path fill="#c6ced0" d="M 272.25 307.761719 C 272.25 332.53125 252.179688 352.613281 227.425781 352.613281 C 202.671875 352.613281 182.605469 332.53125 182.605469 307.761719 C 182.605469 282.988281 202.671875 262.90625 227.425781 262.90625 C 252.179688 262.90625 272.25 282.988281 272.25 307.761719 " fill-opacity="1" fill-rule="nonzero"/><path fill="#283777" d="M 227.425781 353.199219 C 202.386719 353.199219 182.015625 332.816406 182.015625 307.761719 C 182.015625 282.703125 202.386719 262.316406 227.425781 262.316406 C 252.464844 262.316406 272.835938 282.703125 272.835938 307.761719 C 272.835938 332.816406 252.464844 353.199219 227.425781 353.199219 M 227.425781 263.492188 C 203.03125 263.492188 183.1875 283.351562 183.1875 307.761719 C 183.1875 332.167969 203.03125 352.027344 227.425781 352.027344 C 251.820312 352.027344 271.664062 332.167969 271.664062 307.761719 C 271.664062 283.351562 251.820312 263.492188 227.425781 263.492188 " fill-opacity="1" fill-rule="nonzero"/><path fill="#8896b7" d="M 227.421875 263.636719 C 203.113281 263.636719 183.332031 283.429688 183.332031 307.757812 C 183.332031 324.957031 193.128906 340.332031 208.496094 347.609375 C 203.753906 340.277344 201.261719 331.808594 201.261719 322.960938 C 201.261719 297.824219 221.699219 277.375 246.820312 277.375 C 251.871094 277.375 256.808594 278.191406 261.527344 279.808594 C 253.191406 269.640625 240.628906 263.636719 227.421875 263.636719 " fill-opacity="1" fill-rule="nonzero"/><path fill="#abb1d6" d="M 195.835938 275.144531 C 195.6875 275.222656 195.539062 275.296875 195.390625 275.371094 C 187.042969 283.640625 181.867188 295.105469 181.867188 307.757812 C 181.867188 321.742188 188.132812 334.558594 198.542969 343.050781 C 198.632812 343.042969 198.730469 343.035156 198.820312 343.027344 C 188.574219 334.6875 182.015625 321.976562 182.015625 307.761719 C 182.015625 294.976562 187.320312 283.410156 195.835938 275.144531 M 227.421875 262.167969 C 220.015625 262.167969 213.019531 263.945312 206.828125 267.097656 C 206.710938 267.21875 206.59375 267.332031 206.472656 267.449219 C 212.746094 264.171875 219.875 262.316406 227.425781 262.316406 C 243.304688 262.316406 257.304688 270.515625 265.425781 282.90625 L 265.789062 283.054688 L 264.277344 280.96875 C 255.726562 269.195312 241.949219 262.167969 227.421875 262.167969 " fill-opacity="1" fill-rule="nonzero"/><path fill="#7982c1" d="M 198.820312 343.027344 C 198.730469 343.035156 198.632812 343.042969 198.542969 343.050781 C 202.019531 345.890625 205.960938 348.246094 210.285156 350 L 212.671875 350.964844 L 212.449219 350.660156 C 207.453125 348.910156 202.851562 346.308594 198.820312 343.027344 " fill-opacity="1" fill-rule="nonzero"/><path fill="#283777" d="M 227.425781 262.316406 C 219.875 262.316406 212.746094 264.171875 206.472656 267.449219 C 203.34375 270.519531 199.761719 273.125 195.835938 275.144531 C 187.320312 283.410156 182.015625 294.976562 182.015625 307.761719 C 182.015625 321.976562 188.574219 334.6875 198.820312 343.027344 C 202.851562 346.308594 207.453125 348.910156 212.449219 350.660156 L 211.195312 348.941406 C 194.808594 342.449219 183.1875 326.4375 183.1875 307.761719 C 183.1875 283.351562 203.03125 263.492188 227.425781 263.492188 C 242.269531 263.492188 255.425781 270.84375 263.457031 282.101562 L 265.425781 282.90625 C 257.304688 270.515625 243.304688 262.316406 227.425781 262.316406 " fill-opacity="1" fill-rule="nonzero"/><path fill="#8a94bc" d="M 208.496094 347.609375 C 193.128906 340.332031 183.332031 324.957031 183.332031 307.757812 C 183.332031 283.429688 203.113281 263.636719 227.421875 263.636719 C 240.628906 263.636719 253.191406 269.640625 261.527344 279.808594 C 256.808594 278.191406 251.871094 277.375 246.820312 277.375 C 221.699219 277.375 201.261719 297.824219 201.261719 322.960938 C 201.261719 331.808594 203.753906 340.277344 208.496094 347.609375 M 227.425781 263.492188 C 203.03125 263.492188 183.1875 283.351562 183.1875 307.761719 C 183.1875 326.4375 194.808594 342.449219 211.195312 348.941406 L 211.152344 348.882812 C 205.644531 341.332031 202.730469 332.367188 202.730469 322.960938 C 202.730469 298.632812 222.511719 278.839844 246.820312 278.839844 C 252.558594 278.839844 258.136719 279.929688 263.40625 282.082031 L 263.457031 282.101562 C 255.425781 270.84375 242.269531 263.492188 227.425781 263.492188 " fill-opacity="1" fill-rule="nonzero"/><path fill="#506475" d="M 409.105469 307.761719 C 409.105469 325.414062 394.804688 339.722656 377.164062 339.722656 C 359.519531 339.722656 345.21875 325.414062 345.21875 307.761719 C 345.21875 290.105469 359.519531 275.792969 377.164062 275.792969 C 394.804688 275.792969 409.105469 290.105469 409.105469 307.761719 " fill-opacity="1" fill-rule="nonzero"/><path fill="#283777" d="M 377.164062 340.460938 C 359.144531 340.460938 344.484375 325.789062 344.484375 307.761719 C 344.484375 289.726562 359.144531 275.058594 377.164062 275.058594 C 395.179688 275.058594 409.839844 289.726562 409.839844 307.761719 C 409.839844 325.789062 395.179688 340.460938 377.164062 340.460938 Z M 377.164062 276.527344 C 359.953125 276.527344 345.953125 290.539062 345.953125 307.761719 C 345.953125 324.980469 359.953125 338.992188 377.164062 338.992188 C 394.371094 338.992188 408.371094 324.980469 408.371094 307.761719 C 408.371094 290.539062 394.371094 276.527344 377.164062 276.527344 " fill-opacity="1" fill-rule="nonzero"/><path fill="#c6ced0" d="M 409.105469 307.761719 C 409.105469 325.414062 394.804688 339.722656 377.164062 339.722656 C 359.519531 339.722656 345.21875 325.414062 345.21875 307.761719 C 345.21875 290.105469 359.519531 275.792969 377.164062 275.792969 C 394.804688 275.792969 409.105469 290.105469 409.105469 307.761719 " fill-opacity="1" fill-rule="nonzero"/><path fill="#283777" d="M 377.164062 340.3125 C 359.226562 340.3125 344.632812 325.707031 344.632812 307.761719 C 344.632812 289.808594 359.226562 275.207031 377.164062 275.207031 C 395.097656 275.207031 409.691406 289.808594 409.691406 307.761719 C 409.691406 325.707031 395.097656 340.3125 377.164062 340.3125 Z M 377.164062 276.382812 C 359.871094 276.382812 345.804688 290.457031 345.804688 307.761719 C 345.804688 325.0625 359.871094 339.140625 377.164062 339.140625 C 394.453125 339.140625 408.519531 325.0625 408.519531 307.761719 C 408.519531 290.457031 394.453125 276.382812 377.164062 276.382812 " fill-opacity="1" fill-rule="nonzero"/><path fill="#506475" d="M 189.117188 217.628906 C 189.117188 235.285156 174.816406 249.597656 157.171875 249.597656 C 139.53125 249.597656 125.230469 235.285156 125.230469 217.628906 C 125.230469 199.976562 139.53125 185.664062 157.171875 185.664062 C 174.816406 185.664062 189.117188 199.976562 189.117188 217.628906 " fill-opacity="1" fill-rule="nonzero"/><path fill="#283777" d="M 157.171875 250.328125 C 139.15625 250.328125 124.5 235.660156 124.5 217.628906 C 124.5 199.597656 139.15625 184.929688 157.171875 184.929688 C 175.191406 184.929688 189.847656 199.597656 189.847656 217.628906 C 189.847656 235.660156 175.191406 250.328125 157.171875 250.328125 Z M 157.171875 186.398438 C 139.964844 186.398438 125.964844 200.410156 125.964844 217.628906 C 125.964844 234.851562 139.964844 248.859375 157.171875 248.859375 C 174.382812 248.859375 188.382812 234.851562 188.382812 217.628906 C 188.382812 200.410156 174.382812 186.398438 157.171875 186.398438 " fill-opacity="1" fill-rule="nonzero"/><path fill="#abb1d6" d="M 207.558594 210.699219 C 204.070312 210.699219 200.613281 213.363281 200.597656 217.679688 C 200.597656 218.449219 200.578125 219.238281 200.535156 220.011719 C 199.371094 242.011719 181.382812 259.949219 159.394531 261.035156 C 158.652344 261.070312 157.910156 261.089844 157.171875 261.089844 C 154.964844 261.089844 152.796875 260.925781 150.671875 260.597656 C 150.566406 260.59375 150.460938 260.589844 150.359375 260.589844 C 146.246094 260.589844 143.644531 263.792969 146.464844 268.160156 C 154.242188 275.445312 164.675781 279.902344 176.121094 279.902344 C 177.644531 279.902344 179.183594 279.824219 180.734375 279.660156 C 185.945312 279.113281 190.886719 277.625 195.390625 275.371094 C 198.734375 272.058594 202.59375 269.253906 206.828125 267.097656 C 213.945312 259.953125 218.613281 250.375 219.421875 239.824219 C 220.085938 230.804688 218.023438 222.304688 213.902344 215.070312 C 213.695312 214.71875 213.488281 214.363281 213.257812 213.988281 C 211.882812 211.714844 209.714844 210.695312 207.558594 210.699219 " fill-opacity="1" fill-rule="nonzero"/><path fill="#7982c1" d="M 206.828125 267.097656 C 202.59375 269.253906 198.734375 272.058594 195.390625 275.371094 C 195.539062 275.296875 195.6875 275.222656 195.835938 275.144531 C 198.980469 272.097656 202.558594 269.496094 206.472656 267.449219 C 206.59375 267.332031 206.710938 267.21875 206.828125 267.097656 " fill-opacity="1" fill-rule="nonzero"/><path fill="#283777" d="M 206.472656 267.449219 C 202.558594 269.496094 198.980469 272.097656 195.835938 275.144531 C 199.761719 273.125 203.34375 270.519531 206.472656 267.449219 " fill-opacity="1" fill-rule="nonzero"/><path fill="#c6ced0" d="M 189.117188 217.628906 C 189.117188 235.285156 174.816406 249.597656 157.171875 249.597656 C 139.53125 249.597656 125.230469 235.285156 125.230469 217.628906 C 125.230469 199.976562 139.53125 185.664062 157.171875 185.664062 C 174.816406 185.664062 189.117188 199.976562 189.117188 217.628906 " fill-opacity="1" fill-rule="nonzero"/><path fill="#101010" d="M 157.171875 255.847656 C 136.117188 255.847656 118.984375 238.703125 118.984375 217.628906 C 118.984375 196.558594 136.117188 179.414062 157.171875 179.414062 C 178.230469 179.414062 195.363281 196.558594 195.363281 217.628906 C 195.363281 238.703125 178.230469 255.847656 157.171875 255.847656 Z M 157.171875 191.914062 C 143.003906 191.914062 131.476562 203.449219 131.476562 217.628906 C 131.476562 231.808594 143.003906 243.34375 157.171875 243.34375 C 171.34375 243.34375 182.871094 231.808594 182.871094 217.628906 C 182.871094 203.449219 171.34375 191.914062 157.171875 191.914062 " fill-opacity="1" fill-rule="nonzero"/><path fill="#101010" d="M 172.371094 217.628906 C 172.371094 226.03125 165.566406 232.839844 157.171875 232.839844 C 148.78125 232.839844 141.972656 226.03125 141.972656 217.628906 C 141.972656 209.230469 148.78125 202.417969 157.171875 202.417969 C 165.566406 202.417969 172.371094 209.230469 172.371094 217.628906 " fill-opacity="1" fill-rule="nonzero"/><path fill="#dfc40e" d="M 464.402344 186.296875 C 464.402344 196.070312 456.484375 203.988281 446.722656 203.988281 C 436.957031 203.988281 429.042969 196.070312 429.042969 186.296875 C 429.042969 176.527344 436.957031 168.605469 446.722656 168.605469 C 456.484375 168.605469 464.402344 176.527344 464.402344 186.296875 " fill-opacity="1" fill-rule="nonzero"/><path fill="#101010" d="M 227.425781 357.019531 C 200.28125 357.019531 178.203125 334.921875 178.203125 307.761719 C 178.203125 280.597656 200.28125 258.5 227.425781 258.5 C 254.570312 258.5 276.652344 280.597656 276.652344 307.761719 C 276.652344 334.921875 254.570312 357.019531 227.425781 357.019531 Z M 227.425781 267.3125 C 205.140625 267.3125 187.007812 285.457031 187.007812 307.761719 C 187.007812 330.0625 205.140625 348.210938 227.425781 348.210938 C 249.714844 348.210938 267.847656 330.0625 267.847656 307.761719 C 267.847656 285.457031 249.714844 267.3125 227.425781 267.3125 " fill-opacity="1" fill-rule="nonzero"/><path fill="#101010" d="M 258.414062 299.839844 L 258.414062 315.683594 C 258.414062 317.644531 256.820312 319.238281 254.863281 319.238281 L 239.867188 319.238281 L 239.867188 334.242188 C 239.867188 336.207031 238.273438 337.796875 236.3125 337.796875 L 220.496094 337.796875 C 218.535156 337.796875 216.945312 336.207031 216.945312 334.242188 L 216.945312 319.238281 L 201.949219 319.238281 C 199.984375 319.238281 198.394531 317.644531 198.394531 315.683594 L 198.394531 299.839844 C 198.394531 297.875 199.984375 296.28125 201.949219 296.28125 L 216.945312 296.28125 L 216.945312 281.277344 C 216.945312 279.316406 218.535156 277.722656 220.496094 277.722656 L 236.3125 277.722656 C 238.273438 277.722656 239.867188 279.316406 239.867188 281.277344 L 239.867188 296.28125 L 254.863281 296.28125 C 256.820312 296.28125 258.414062 297.875 258.414062 299.839844 " fill-opacity="1" fill-rule="nonzero"/><path fill="#ed1163" d="M 483.050781 240.347656 C 473.289062 240.347656 465.371094 232.425781 465.371094 222.652344 C 465.371094 212.882812 473.289062 204.960938 483.050781 204.960938 C 492.816406 204.960938 500.730469 212.882812 500.730469 222.652344 C 500.730469 232.425781 492.816406 240.347656 483.050781 240.347656 " fill-opacity="1" fill-rule="nonzero"/><path fill="#566dbe" d="M 410.390625 240.347656 C 400.625 240.347656 392.714844 232.425781 392.714844 222.652344 C 392.714844 212.882812 400.625 204.960938 410.390625 204.960938 C 420.15625 204.960938 428.074219 212.882812 428.074219 222.652344 C 428.074219 232.425781 420.15625 240.347656 410.390625 240.347656 " fill-opacity="1" fill-rule="nonzero"/><path fill="#abb1d6" d="M 465.75 183.179688 C 466.382812 185.023438 466.742188 186.984375 466.742188 189.027344 C 466.742188 198.804688 458.828125 206.71875 449.058594 206.71875 C 446.015625 206.71875 443.136719 205.945312 440.621094 204.570312 C 443.03125 211.46875 449.601562 216.417969 457.3125 216.417969 C 461.695312 216.417969 465.707031 214.820312 468.796875 212.175781 C 469.605469 211.078125 470.53125 210.082031 471.5625 209.199219 C 473.71875 206.269531 474.996094 202.644531 474.996094 198.722656 C 474.996094 192.011719 471.253906 186.164062 465.75 183.179688 " fill-opacity="1" fill-rule="nonzero"/><path fill="#abb1d6" d="M 465.75 255.894531 C 466.382812 257.714844 466.742188 259.679688 466.742188 261.738281 C 466.742188 271.511719 458.828125 279.433594 449.058594 279.433594 C 446.015625 279.433594 443.136719 278.660156 440.621094 277.28125 C 443.03125 284.179688 449.601562 289.128906 457.3125 289.128906 C 467.066406 289.128906 474.996094 281.210938 474.996094 271.4375 C 474.996094 264.722656 471.253906 258.875 465.75 255.894531 " fill-opacity="1" fill-rule="nonzero"/><path fill="#abb1d6" d="M 502.089844 219.542969 C 502.722656 221.367188 503.078125 223.332031 503.078125 225.390625 C 503.078125 235.164062 495.164062 243.085938 485.398438 243.085938 C 482.335938 243.085938 479.445312 242.3125 476.941406 240.933594 C 479.351562 247.816406 485.921875 252.765625 493.632812 252.765625 C 503.402344 252.765625 511.316406 244.847656 511.316406 235.089844 C 511.316406 228.375 507.59375 222.542969 502.089844 219.542969 " fill-opacity="1" fill-rule="nonzero"/><path fill="#abb1d6" d="M 429.429688 219.542969 C 430.0625 221.367188 430.417969 223.332031 430.417969 225.390625 C 430.417969 235.164062 422.503906 243.085938 412.738281 243.085938 C 409.675781 243.085938 406.785156 242.3125 404.28125 240.933594 C 406.695312 247.816406 413.261719 252.765625 420.976562 252.765625 C 425.378906 252.765625 429.40625 251.15625 432.503906 248.492188 C 433.289062 247.425781 434.195312 246.453125 435.199219 245.589844 C 437.371094 242.652344 438.65625 239.019531 438.65625 235.089844 C 438.65625 228.375 434.933594 222.542969 429.429688 219.542969 " fill-opacity="1" fill-rule="nonzero"/><path fill="#44bc54" d="M 464.402344 259.007812 C 464.402344 268.78125 456.484375 276.699219 446.722656 276.699219 C 436.957031 276.699219 429.042969 268.78125 429.042969 259.007812 C 429.042969 249.238281 436.957031 241.316406 446.722656 241.316406 C 456.484375 241.316406 464.402344 249.238281 464.402344 259.007812 " fill-opacity="1" fill-rule="nonzero"/><path fill="#ffffff" d="M 431.976562 196.0625 C 431.976562 196.0625 431.980469 196.0625 431.980469 196.066406 C 431.980469 196.0625 431.976562 196.0625 431.976562 196.0625 M 446.714844 168.601562 C 436.96875 168.601562 429.035156 176.515625 429.035156 186.292969 C 429.035156 189.902344 430.117188 193.257812 431.96875 196.054688 C 430.121094 193.253906 429.042969 189.902344 429.042969 186.296875 C 429.042969 176.527344 436.957031 168.605469 446.722656 168.605469 C 449.195312 168.605469 451.554688 169.113281 453.695312 170.035156 C 451.550781 169.113281 449.191406 168.601562 446.714844 168.601562 " fill-opacity="1" fill-rule="nonzero"/><path fill="#eee47d" d="M 446.722656 168.605469 C 436.957031 168.605469 429.042969 176.527344 429.042969 186.296875 C 429.042969 189.902344 430.121094 193.253906 431.96875 196.054688 C 431.972656 196.054688 431.976562 196.058594 431.976562 196.0625 C 431.976562 196.0625 431.980469 196.0625 431.980469 196.066406 C 434.3125 199.578125 437.863281 202.199219 442.023438 203.332031 C 439 200.183594 437.136719 195.875 437.136719 191.132812 C 437.136719 181.355469 445.046875 173.441406 454.816406 173.441406 C 456.4375 173.441406 458.011719 173.660156 459.507812 174.09375 C 457.878906 172.375 455.902344 170.988281 453.695312 170.035156 C 451.554688 169.113281 449.195312 168.605469 446.722656 168.605469 " fill-opacity="1" fill-rule="nonzero"/><path fill="#ffffff" d="M 468.816406 212.160156 C 468.8125 212.164062 468.804688 212.167969 468.796875 212.175781 C 466.636719 215.109375 465.359375 218.730469 465.359375 222.644531 C 465.359375 226.535156 466.617188 230.128906 468.738281 233.039062 C 466.621094 230.121094 465.371094 226.535156 465.371094 222.652344 C 465.371094 218.722656 466.652344 215.09375 468.816406 212.160156 M 483.042969 204.953125 C 478.664062 204.953125 474.652344 206.550781 471.5625 209.199219 C 471.558594 209.207031 471.554688 209.210938 471.546875 209.214844 C 474.640625 206.5625 478.660156 204.960938 483.050781 204.960938 C 486.082031 204.960938 488.933594 205.722656 491.421875 207.066406 C 488.929688 205.71875 486.074219 204.953125 483.042969 204.953125 " fill-opacity="1" fill-rule="nonzero"/><path fill="#f57ab0" d="M 483.050781 204.960938 C 478.660156 204.960938 474.640625 206.5625 471.546875 209.214844 C 470.75 210.296875 469.835938 211.285156 468.816406 212.160156 C 466.652344 215.09375 465.371094 218.722656 465.371094 222.652344 C 465.371094 226.535156 466.621094 230.121094 468.738281 233.039062 C 471.066406 236.238281 474.441406 238.617188 478.347656 239.683594 C 475.328125 236.535156 473.464844 232.226562 473.464844 227.484375 C 473.464844 217.730469 481.371094 209.792969 491.144531 209.792969 C 492.761719 209.792969 494.335938 210.007812 495.835938 210.445312 C 494.558594 209.097656 493.066406 207.957031 491.421875 207.066406 C 488.933594 205.722656 486.082031 204.960938 483.050781 204.960938 " fill-opacity="1" fill-rule="nonzero"/><path fill="#d8daea" d="M 471.5625 209.199219 C 470.53125 210.082031 469.605469 211.078125 468.796875 212.175781 C 468.804688 212.167969 468.8125 212.164062 468.816406 212.160156 C 469.613281 211.078125 470.53125 210.089844 471.546875 209.214844 C 471.554688 209.210938 471.558594 209.207031 471.5625 209.199219 " fill-opacity="1" fill-rule="nonzero"/><path fill="#df80ba" d="M 471.546875 209.214844 C 470.53125 210.089844 469.613281 211.078125 468.816406 212.160156 C 469.835938 211.285156 470.75 210.296875 471.546875 209.214844 " fill-opacity="1" fill-rule="nonzero"/><path fill="#ffffff" d="M 410.390625 204.953125 C 400.617188 204.953125 392.710938 212.890625 392.710938 222.644531 C 392.710938 226.574219 393.984375 230.203125 396.148438 233.132812 C 393.988281 230.203125 392.714844 226.574219 392.714844 222.652344 C 392.714844 212.882812 400.625 204.960938 410.390625 204.960938 C 414.660156 204.960938 418.570312 206.472656 421.625 208.988281 C 418.570312 206.464844 414.652344 204.953125 410.390625 204.953125 " fill-opacity="1" fill-rule="nonzero"/><path fill="#abb8e3" d="M 410.390625 204.960938 C 400.625 204.960938 392.714844 212.882812 392.714844 222.652344 C 392.714844 226.574219 393.988281 230.203125 396.148438 233.132812 C 398.46875 236.285156 401.8125 238.628906 405.695312 239.683594 C 402.675781 236.535156 400.8125 232.226562 400.8125 227.484375 C 400.8125 217.730469 408.722656 209.792969 418.492188 209.792969 C 420.113281 209.792969 421.683594 210.007812 423.183594 210.445312 C 422.695312 209.929688 422.171875 209.445312 421.625 208.988281 C 418.570312 206.472656 414.660156 204.960938 410.390625 204.960938 " fill-opacity="1" fill-rule="nonzero"/><path fill="#ffffff" d="M 430.636719 251.65625 C 429.609375 253.898438 429.035156 256.390625 429.035156 259.019531 C 429.035156 264.597656 431.632812 269.585938 435.675781 272.820312 C 431.628906 269.582031 429.042969 264.597656 429.042969 259.007812 C 429.042969 256.386719 429.613281 253.894531 430.636719 251.65625 " fill-opacity="1" fill-rule="nonzero"/><path fill="#9adaa0" d="M 446.714844 241.328125 C 439.589844 241.328125 433.429688 245.558594 430.636719 251.65625 C 429.613281 253.894531 429.042969 256.386719 429.042969 259.007812 C 429.042969 264.597656 431.628906 269.582031 435.675781 272.820312 C 437.523438 274.304688 439.675781 275.421875 442.023438 276.058594 C 439 272.886719 437.136719 268.605469 437.136719 263.859375 C 437.136719 254.082031 445.046875 246.167969 454.816406 246.167969 C 456.4375 246.167969 458.011719 246.386719 459.507812 246.820312 C 456.292969 243.433594 451.746094 241.328125 446.714844 241.328125 " fill-opacity="1" fill-rule="nonzero"/><path fill="#101010" d="M 446.722656 281.910156 C 434.101562 281.910156 423.835938 271.636719 423.835938 259.007812 C 423.835938 246.382812 434.101562 236.105469 446.722656 236.105469 C 459.339844 236.105469 469.609375 246.382812 469.609375 259.007812 C 469.609375 271.636719 459.339844 281.910156 446.722656 281.910156 Z M 446.722656 246.523438 C 439.84375 246.523438 434.246094 252.125 434.246094 259.007812 C 434.246094 265.894531 439.84375 271.492188 446.722656 271.492188 C 453.597656 271.492188 459.199219 265.894531 459.199219 259.007812 C 459.199219 252.125 453.597656 246.523438 446.722656 246.523438 " fill-opacity="1" fill-rule="nonzero"/><path fill="#101010" d="M 446.722656 209.199219 C 434.101562 209.199219 423.835938 198.925781 423.835938 186.296875 C 423.835938 173.667969 434.101562 163.398438 446.722656 163.398438 C 459.339844 163.398438 469.609375 173.667969 469.609375 186.296875 C 469.609375 198.925781 459.339844 209.199219 446.722656 209.199219 Z M 446.722656 173.8125 C 439.84375 173.8125 434.246094 179.414062 434.246094 186.296875 C 434.246094 193.179688 439.84375 198.78125 446.722656 198.78125 C 453.597656 198.78125 459.199219 193.179688 459.199219 186.296875 C 459.199219 179.414062 453.597656 173.8125 446.722656 173.8125 " fill-opacity="1" fill-rule="nonzero"/><path fill="#101010" d="M 483.050781 245.554688 C 470.433594 245.554688 460.167969 235.28125 460.167969 222.652344 C 460.167969 210.023438 470.433594 199.753906 483.050781 199.753906 C 495.667969 199.753906 505.9375 210.023438 505.9375 222.652344 C 505.9375 235.28125 495.667969 245.554688 483.050781 245.554688 Z M 483.050781 210.171875 C 476.171875 210.171875 470.578125 215.769531 470.578125 222.652344 C 470.578125 229.539062 476.171875 235.136719 483.050781 235.136719 C 489.929688 235.136719 495.527344 229.539062 495.527344 222.652344 C 495.527344 215.769531 489.929688 210.171875 483.050781 210.171875 " fill-opacity="1" fill-rule="nonzero"/><path fill="#101010" d="M 410.390625 245.554688 C 397.773438 245.554688 387.503906 235.28125 387.503906 222.652344 C 387.503906 210.023438 397.773438 199.753906 410.390625 199.753906 C 423.011719 199.753906 433.277344 210.023438 433.277344 222.652344 C 433.277344 235.28125 423.011719 245.554688 410.390625 245.554688 Z M 410.390625 210.171875 C 403.511719 210.171875 397.917969 215.769531 397.917969 222.652344 C 397.917969 229.539062 403.511719 235.136719 410.390625 235.136719 C 417.269531 235.136719 422.863281 229.539062 422.863281 222.652344 C 422.863281 215.769531 417.269531 210.171875 410.390625 210.171875 " fill-opacity="1" fill-rule="nonzero"/><path fill="#101010" d="M 377.164062 344.128906 C 357.121094 344.128906 340.820312 327.8125 340.820312 307.761719 C 340.820312 287.703125 357.121094 271.390625 377.164062 271.390625 C 397.203125 271.390625 413.507812 287.703125 413.507812 307.761719 C 413.507812 327.8125 397.203125 344.128906 377.164062 344.128906 Z M 377.164062 280.199219 C 361.976562 280.199219 349.621094 292.5625 349.621094 307.761719 C 349.621094 322.957031 361.976562 335.320312 377.164062 335.320312 C 392.347656 335.320312 404.703125 322.957031 404.703125 307.761719 C 404.703125 292.5625 392.347656 280.199219 377.164062 280.199219 " fill-opacity="1" fill-rule="nonzero"/><path fill="#101010" d="M 392.363281 307.761719 C 392.363281 316.15625 385.554688 322.96875 377.164062 322.96875 C 368.769531 322.96875 361.964844 316.15625 361.964844 307.761719 C 361.964844 299.359375 368.769531 292.550781 377.164062 292.550781 C 385.554688 292.550781 392.363281 299.359375 392.363281 307.761719 " fill-opacity="1" fill-rule="nonzero"/><path fill="#101010" d="M 285.289062 234.332031 C 285.289062 240.785156 280.0625 246.007812 273.617188 246.007812 C 267.171875 246.007812 261.945312 240.785156 261.945312 234.332031 C 261.945312 227.882812 267.171875 222.652344 273.617188 222.652344 C 280.0625 222.652344 285.289062 227.882812 285.289062 234.332031 " fill-opacity="1" fill-rule="nonzero"/><path fill="#101010" d="M 340.007812 234.332031 C 340.007812 240.785156 334.78125 246.007812 328.335938 246.007812 C 321.890625 246.007812 316.664062 240.785156 316.664062 234.332031 C 316.664062 227.882812 321.890625 222.652344 328.335938 222.652344 C 334.78125 222.652344 340.007812 227.882812 340.007812 234.332031 " fill-opacity="1" fill-rule="nonzero"/><path fill="#abb1d6" d="M 284.515625 230.148438 C 284.738281 230.726562 284.914062 231.332031 285.042969 231.949219 C 285.207031 232.71875 285.289062 233.515625 285.289062 234.332031 C 285.289062 240.785156 280.066406 246.011719 273.621094 246.011719 C 272.5625 246.011719 271.546875 245.878906 270.570312 245.609375 C 270.449219 245.578125 270.328125 245.542969 270.207031 245.503906 C 271.875 249.894531 276.125 253.003906 281.085938 253.003906 C 287.53125 253.003906 292.757812 247.757812 292.757812 241.308594 C 292.757812 236.054688 289.285156 231.605469 284.515625 230.148438 " fill-opacity="1" fill-rule="nonzero"/><path fill="#12182c" d="M 270.207031 245.503906 C 270.328125 245.542969 270.449219 245.578125 270.570312 245.609375 C 270.449219 245.574219 270.328125 245.539062 270.207031 245.503906 M 284.503906 230.140625 C 284.730469 230.726562 284.914062 231.328125 285.042969 231.949219 C 284.914062 231.332031 284.738281 230.726562 284.515625 230.148438 C 284.511719 230.144531 284.507812 230.144531 284.503906 230.140625 " fill-opacity="1" fill-rule="nonzero"/><path fill="#abb1d6" d="M 339.238281 230.148438 C 339.734375 231.445312 340.007812 232.855469 340.007812 234.332031 C 340.007812 235.417969 339.859375 236.464844 339.582031 237.460938 C 338.21875 242.394531 333.699219 246.011719 328.335938 246.011719 C 327.214844 246.011719 326.132812 245.859375 325.105469 245.558594 C 325.046875 245.539062 324.984375 245.523438 324.921875 245.503906 C 326.589844 249.894531 330.84375 253.003906 335.800781 253.003906 C 342.25 253.003906 347.472656 247.757812 347.472656 241.308594 C 347.472656 236.058594 344.003906 231.609375 339.238281 230.148438 " fill-opacity="1" fill-rule="nonzero"/><path fill="#12182c" d="M 324.921875 245.503906 C 324.984375 245.523438 325.046875 245.539062 325.105469 245.558594 C 325.046875 245.539062 324.980469 245.519531 324.921875 245.503906 M 339.21875 230.140625 C 339.726562 231.441406 340.007812 232.847656 340.007812 234.332031 C 340.007812 235.417969 339.859375 236.46875 339.582031 237.460938 C 339.859375 236.464844 340.007812 235.417969 340.007812 234.332031 C 340.007812 232.855469 339.734375 231.445312 339.238281 230.148438 C 339.230469 230.148438 339.222656 230.144531 339.21875 230.140625 " fill-opacity="1" fill-rule="nonzero"/><path stroke-linecap="butt" transform="matrix(0.75, 0, 0, 0.75, 100.5, 675.054824)" fill="none" stroke-linejoin="miter" d="M 127.661465 -20.802266 L 116.802089 62.400863 C 115.359381 73.296697 112.468756 80.015448 104.968755 80.015448 C 97.427088 80.015448 97.114588 73.296697 98.718755 60.796697 L 69.927087 60.796697 L 69.265628 65.603988 C 65.906253 91.54149 74.536462 106.228991 103.364588 106.228991 C 130.55209 106.228991 143.364591 91.54149 146.723966 65.916488 L 158.093758 -20.802266 Z M 208.484386 -20.802266 L 162.390633 103.999824 L 195.046885 103.999824 L 203.213552 78.728989 L 229.109387 78.728989 L 231.026054 103.999824 L 263.526055 103.999824 L 250.088555 -20.802266 Z M 224.656262 14.390444 L 227.354178 52.478988 L 212.000011 52.478988 Z M 329.135434 53.765446 C 346.08856 55.994613 349.135435 60.952947 348.468768 67.202947 L 348.312518 68.807114 C 347.687518 74.900864 343.041685 80.015448 332.651059 80.015448 L 331.046892 80.015448 C 320.656267 80.015448 316.010433 74.546697 317.765642 60.796697 L 287.375015 60.796697 L 287.026057 63.374822 C 283.354181 92.32274 299.057307 106.228991 329.447934 106.228991 C 358.859394 106.228991 376.479186 93.765448 379.057312 70.249822 L 379.369812 67.359197 C 382.06252 43.531071 370.229186 32.947737 343.510435 29.275862 C 327.026059 27.046695 324.328142 22.713361 324.953142 15.994611 L 325.109392 14.390444 C 325.776059 8.18211 330.890642 3.218568 339.682309 3.218568 L 341.281268 3.218568 C 352.49481 3.218568 355.697935 9.937319 353.74481 23.99982 L 384.171895 23.99982 L 384.640645 20.171694 C 388.15627 -8.302265 375.18752 -23.031433 344.015643 -23.031433 C 312.807308 -23.031433 296.635432 -7.989765 294.250015 14.077944 L 293.901057 16.968569 C 291.35939 39.510237 302.416682 50.249821 329.135434 53.765446 Z M 438.88544 -20.802266 L 392.791687 103.999824 L 425.447939 103.999824 L 433.609398 78.728989 L 459.510441 78.728989 L 461.421899 103.999824 L 493.921901 103.999824 L 480.4844 -20.802266 Z M 455.057316 14.390444 L 457.750024 52.478988 L 442.401065 52.478988 Z M 618.062533 -20.802266 L 607.203157 62.400863 C 605.760449 73.296697 602.869824 80.015448 595.369823 80.015448 C 587.828156 80.015448 587.515656 73.296697 589.119823 60.796697 L 560.328155 60.796697 L 559.666696 65.603988 C 556.307321 91.54149 564.93753 106.228991 593.765656 106.228991 C 620.953158 106.228991 633.765659 91.54149 637.125034 65.916488 L 648.494826 -20.802266 Z M 720.796913 -23.031433 C 687.203161 -23.031433 670.875036 -4.47414 665.135452 38.728987 L 664.312535 44.781071 C 658.572952 87.984198 673.609411 106.228991 707.203162 106.228991 C 740.796914 106.228991 756.96879 87.671698 762.713582 44.468571 L 763.53129 38.416487 C 769.276082 -4.78664 754.390665 -23.031433 720.796913 -23.031433 Z M 707.984413 80.015448 C 693.609412 80.015448 692.322953 66.577947 695.213578 44.781071 L 695.994829 38.728987 C 698.885454 16.968569 703.687537 3.218568 718.062538 3.218568 L 719.822955 3.218568 C 734.234414 3.218568 735.526081 16.656069 732.635455 38.416487 L 731.854205 44.468571 C 728.96358 66.228989 724.156288 80.015448 709.744829 80.015448 Z M 826.869836 -20.802266 L 796.479209 -20.802266 L 780.151083 103.999824 L 810.54171 103.999824 L 815.036502 68.807114 L 825.270877 56.463363 L 839.369836 103.999824 L 872.963588 103.999824 L 848.630253 28.338361 L 889.291714 -20.802266 L 852.458379 -20.802266 L 821.286502 22.088361 Z M 942.890675 -20.802266 L 912.46359 -20.802266 L 896.171923 103.999824 L 926.562549 103.999824 Z M 942.890675 -20.802266 " stroke="#94dd26" stroke-width="4.6" stroke-opacity="1" stroke-miterlimit="4"/><path stroke-linecap="butt" transform="matrix(0.75, 0, 0, 0.75, 36.56781, 802.050913)" fill="none" stroke-linejoin="miter" d="M 63.248131 106.228997 C 86.920008 106.228997 99.2273 99.353996 108.836676 91.541496 L 116.373134 34.546701 L 70.904382 34.546701 L 67.388757 60.796703 L 82.430424 60.796703 L 80.357507 76.812328 C 77.154382 78.572745 71.258549 80.015454 66.607507 80.015454 L 64.852298 80.015454 C 49.654381 80.015454 46.763756 66.577953 49.654381 44.781077 L 50.435631 38.728993 C 53.326256 17.124825 58.289798 3.218575 73.482507 3.218575 L 75.242924 3.218575 C 87.232508 3.218575 88.992925 12.791492 87.076258 27.202951 L 117.466884 27.202951 L 118.289801 20.95295 C 122.117926 -9.125176 106.763759 -23.031427 76.216882 -23.031427 C 42.586672 -23.031427 25.321046 -4.474134 19.576254 38.728993 L 18.758546 44.781077 C 13.013754 87.984204 29.65438 106.228997 63.248131 106.228997 Z M 174.128346 -20.80226 L 128.034593 103.99983 L 160.690845 103.99983 L 168.852304 78.728995 L 194.753347 78.728995 L 196.664805 103.99983 L 229.164807 103.99983 L 215.727306 -20.80226 Z M 190.300222 14.39045 L 192.99293 52.478994 L 177.643971 52.478994 Z M 356.847106 32.010243 L 352.821064 55.994619 L 346.61273 103.99983 L 377.003357 103.99983 L 393.331483 -20.80226 L 348.055438 -20.80226 L 320.675229 51.187327 L 312.196061 -20.80226 L 266.925226 -20.80226 L 250.5971 103.99983 L 280.987726 103.99983 L 287.237727 55.994619 L 289.659602 32.010243 L 298.133561 103.99983 L 329.461687 103.99983 Z M 421.326276 -20.80226 L 404.99815 103.99983 L 483.393987 103.99983 L 486.753363 77.749829 L 438.748152 77.749829 L 441.951277 53.452952 L 481.951279 53.452952 L 485.466904 27.202951 L 445.466902 27.202951 L 448.357527 5.447741 L 496.362738 5.447741 L 499.722113 -20.80226 Z M 615.242953 -23.031427 C 581.649201 -23.031427 565.321075 -4.474134 559.576283 38.728993 L 558.758575 44.781077 C 553.013783 87.984204 568.05545 106.228997 601.649202 106.228997 C 635.242954 106.228997 651.41483 87.671704 657.154413 44.468577 L 657.97733 38.416493 C 663.716914 -4.786634 648.836705 -23.031427 615.242953 -23.031427 Z M 602.430452 80.015454 C 588.055451 80.015454 586.763785 66.577953 589.65441 44.781077 L 590.43566 38.728993 C 593.326285 16.968575 598.133577 3.218575 612.508578 3.218575 L 614.263786 3.218575 C 628.680453 3.218575 629.966912 16.656075 627.076287 38.416493 L 626.295037 44.468577 C 623.404412 66.228995 618.602328 80.015454 604.18566 80.015454 Z M 785.34192 -20.80226 L 756.513794 -20.80226 L 750.612752 23.999826 L 748.347127 47.984202 L 722.920042 -20.80226 L 690.925248 -20.80226 L 674.597123 103.99983 L 703.388791 103.99983 L 709.170041 59.197744 L 711.55025 35.213368 L 737.019001 103.99983 L 769.013794 103.99983 Z M 871.409633 103.99983 L 874.769008 77.749829 L 830.748173 77.749829 L 843.716923 -20.80226 L 813.326297 -20.80226 L 796.998171 103.99983 Z M 941.33672 -20.80226 L 910.904427 -20.80226 L 894.617968 103.99983 L 925.008594 103.99983 Z M 1064.539852 -20.80226 L 1035.711725 -20.80226 L 1029.810683 23.999826 L 1027.545058 47.984202 L 1002.117974 -20.80226 L 970.12318 -20.80226 L 953.795054 103.99983 L 982.586722 103.99983 L 988.367973 59.197744 L 990.748181 35.213368 L 1016.216933 103.99983 L 1048.211726 103.99983 Z M 1092.524228 -20.80226 L 1076.196102 103.99983 L 1154.597148 103.99983 L 1157.956524 77.749829 L 1109.946104 77.749829 L 1113.149229 53.452952 L 1153.149232 53.452952 L 1156.664857 27.202951 L 1116.664855 27.202951 L 1119.55548 5.447741 L 1167.565899 5.447741 L 1170.925274 -20.80226 Z M 1092.524228 -20.80226 " stroke="#ffffff" stroke-width="4.6" stroke-opacity="1" stroke-miterlimit="4"/></svg>